<svg version="1.1" id="Capa_1" xmlns="http://www.w3.org/2000/svg" x="0" y="0" viewBox="0 0 61 81" xml:space="preserve"><style>.st0{fill:#063169}</style><path class="st0" d="M38.8 34.6c-.6-1.3-2-1.9-3.3-1.3L11.7 43.7c-1.3.6-1.9 2-1.3 3.3.6 1.3 2 1.9 3.3 1.3l23.8-10.4c1.3-.5 1.9-2 1.3-3.3zm-23 18.3c-1.3.6-1.9 2-1.3 3.3.6 1.3 2 1.9 3.3 1.3l14.4-6.3c1.3-.6 1.9-2 1.3-3.3s-2-1.9-3.3-1.3l-14.4 6.3z"/><path class="st0" d="M30.9 72.7l-7.7 3.4c-2.5 1.1-5.5-.1-6.6-2.6L-1.2 32.9c-1.1-2.5.1-5.5 2.6-6.6l28.4-12.4c2.5-1.1 5.5.1 6.6 2.6l6.2 14.2c.6 1.3 2 1.9 3.3 1.3s1.9-2 1.3-3.3L41 14.4C38.8 9.3 32.8 7 27.7 9.2L-.6 21.6c-5.1 2.2-7.4 8.2-5.2 13.3L12 75.5c2.2 5.1 8.2 7.4 13.3 5.2l7.7-3.4c1.3-.6 1.9-2 1.3-3.3-.7-1.3-2.1-1.8-3.4-1.3z"/><path class="st0" d="M55.7 36.8c-3.9-1.5-8.3.4-9.8 4.3l-7.1 18.2c-.2.4-.2.8-.2 1.2l1.2 10.3c.1.9.7 1.7 1.6 2 .6.3 1.3.2 2 0 .2-.1.4-.2.6-.4l8.2-6.7c.3-.3.6-.6.8-1l7.1-18.1c1.4-3.9-.6-8.3-4.4-9.8zm-7.3 25.5l-4.1 3.3-.6-5.1 4.8-12.3 4.7 1.8-4.8 12.3zm6.8-17.5l-.2.6-4.7-1.8.3-.6c.5-1.3 2-1.9 3.3-1.4 1.2.4 1.9 1.9 1.3 3.2zM31.5 24.1L7.7 34.5c-1.3.6-1.9 2-1.3 3.3.6 1.3 2 1.9 3.3 1.3l23.8-10.4c1.3-.6 1.9-2 1.3-3.3s-2-1.9-3.3-1.3z"/></svg>