<svg version="1.1" id="Layer_1" xmlns="http://www.w3.org/2000/svg" x="0" y="0" viewBox="0 0 2451 1276" xml:space="preserve"><style>.st0{opacity:.55}.st1{fill:#173b56}</style><linearGradient id="SVGID_1_" gradientUnits="userSpaceOnUse" x1="0" y1="0" x2="0" y2="-1"><stop offset="0" stop-color="#656565"/><stop offset=".618" stop-color="#1b1b1b"/><stop offset=".629" stop-color="#545454"/><stop offset=".983" stop-color="#3e3e3e"/></linearGradient><g class="st0"><path class="st1" d="M-241.66 824.27l-43.13-43.13V611.86h37.91V300.05h-3.6v308.21h-37.91v174.37l43.13 43.13v57.4h-32.19c-.8-2.86-3.39-4.98-6.5-4.98-3.74 0-6.78 3.04-6.78 6.78 0 3.73 3.04 6.77 6.78 6.77 3.11 0 5.71-2.12 6.5-4.98h35.79v-62.48z"/><path class="st1" d="M-270.1 626.43h37.91V292.66h-3.6v330.16h-37.91v152.42l43.13 43.14v85.68h-20.45c-.79-2.86-3.39-4.97-6.51-4.97-3.74 0-6.78 3.03-6.78 6.77 0 3.74 3.04 6.78 6.78 6.78 3.11 0 5.71-2.11 6.5-4.97h24.06v-90.78l-43.13-43.13V626.43z"/><path class="st1" d="M-210.57 925.5V810.87l-43.14-43.14V643.39h37.91V286.65h-3.6v353.14h-37.91v129.45l43.13 43.13V925.5c-2.86.8-4.97 3.4-4.97 6.51 0 3.73 3.04 6.77 6.78 6.77 3.75 0 6.77-3.04 6.77-6.77 0-3.1-2.11-5.71-4.97-6.51z"/><path class="st1" d="M-235.74 737.57c-2.86.8-4.97 3.39-4.97 6.5 0 3.74 3.03 6.78 6.77 6.78 3.74 0 6.78-3.04 6.78-6.78 0-3.11-2.11-5.71-4.97-6.5v-75.24h37.91V350.52h-3.6v308.21h-37.91v78.84z"/><path class="st1" d="M-221.04 760.1c-2.86.79-4.98 3.39-4.98 6.51 0 3.74 3.04 6.77 6.78 6.77s6.77-3.03 6.77-6.77c0-3.12-2.11-5.71-4.97-6.51v-83.2h37.91V343.12h-3.6v330.17h-37.91v86.81z"/><path class="st1" d="M-201.04 776.32v-82.46h37.91V337.12h-3.61v353.13h-37.91v86.06c-2.86.8-4.98 3.39-4.98 6.51 0 3.74 3.04 6.77 6.78 6.77s6.77-3.03 6.77-6.77c.01-3.12-2.1-5.71-4.96-6.5z"/><path class="st1" d="M-149.31 735.53h-37.91v134.28h41.52V763.46h-21.51v60.62c-2.86.78-4.98 3.39-4.98 6.51 0 3.73 3.03 6.76 6.78 6.76 3.74 0 6.77-3.03 6.77-6.76 0-3.13-2.11-5.71-4.97-6.51v-57.01h14.3v99.13h-34.3V739.13h37.91v-304.4h-3.61v300.8zm-260.97 287.41V844.9l-43.14-43.13V632.5h37.91V320.68h-3.6v308.2h-37.91v174.38l43.14 43.14v176.54c-2.86.79-4.98 3.39-4.98 6.51 0 3.74 3.04 6.77 6.78 6.77s6.78-3.03 6.78-6.77c-.01-3.13-2.12-5.71-4.98-6.51z"/><path class="st1" d="M-395.59 983.29V837.51l-43.13-43.13V647.06h37.91V313.29h-3.6v330.16h-37.91v152.41l43.13 43.14v144.28c-2.86.8-4.98 3.39-4.98 6.51 0 3.75 3.04 6.77 6.78 6.77s6.77-3.03 6.77-6.77c0-3.12-2.11-5.71-4.97-6.5z"/><path class="st1" d="M-379.19 948.44V831.51l-43.13-43.14V664.02h37.91V307.28h-3.6v353.13h-37.91v129.44l43.13 43.13v115.46c-2.86.79-4.97 3.39-4.97 6.5 0 3.74 3.03 6.78 6.77 6.78 3.74 0 6.78-3.04 6.78-6.78 0-3.11-2.12-5.7-4.98-6.5zm534.02 129.65V954.72l-43.14-43.13V669.02H4.54V216.93H.94v455.69h107.14v240.46l43.14 43.14v121.87c-2.86.8-4.98 3.39-4.98 6.5 0 3.74 3.04 6.77 6.78 6.77s6.77-3.03 6.77-6.77c.01-3.11-2.1-5.71-4.96-6.5zm376.89 120.13v-130.18l-43.13-43.14V860.53h32.92V626.32l-34.92-32.44V493.86h38.25V330.51c2.86-.79 4.97-3.39 4.97-6.5a6.77 6.77 0 0 0-6.77-6.78c-3.73 0-6.77 3.03-6.77 6.78 0 3.11 2.12 5.7 4.97 6.5v159.74h-38.25v105.2l34.92 32.45v229.04h-32.92v169.46l43.13 43.14v128.63c-2.91.76-5.07 3.37-5.07 6.53 0 3.75 3.04 6.78 6.77 6.78 3.75 0 6.79-3.03 6.79-6.78-.01-3.1-2.08-5.66-4.89-6.48z"/><path class="st1" d="M546.43 1175.15v-107.47l-43.15-43.14v-147.3h37.91V617.08l-37.91-38.3v-67.3h37.98V271.07c2.85-.8 4.97-3.39 4.97-6.51 0-3.74-3.04-6.77-6.77-6.77-3.74 0-6.78 3.04-6.78 6.77 0 3.12 2.11 5.71 4.97 6.51v236.8h-37.97v72.39l37.91 38.3v255.07h-37.91v152.41l43.14 43.14v105.74a6.769 6.769 0 0 0-5.36 6.62c0 3.73 3.03 6.76 6.77 6.76 3.73 0 6.78-3.03 6.78-6.76 0-2.97-1.93-5.46-4.58-6.39zM169.51 1047.9V947.34l-43.13-43.14V652.5H19.24V216.93h-3.61V656.1h107.15v249.59l43.14 43.14v99.07a6.746 6.746 0 0 0-4.97 6.51c0 3.73 3.03 6.77 6.77 6.77 3.75 0 6.77-3.04 6.77-6.77 0-3.13-2.11-5.73-4.98-6.51zm21.47-117.89V806.64l-43.14-43.14V594.23h37.91V282.42h-3.6v308.2h-37.91v174.37l43.13 43.14v121.88c-2.86.79-4.97 3.38-4.97 6.5 0 3.75 3.04 6.77 6.77 6.77a6.77 6.77 0 0 0 6.78-6.77c0-3.12-2.11-5.7-4.97-6.5z"/><path class="st1" d="M205.67 899.81V799.25l-43.13-43.14V608.79h37.91V275.03h-3.61v330.16h-37.91V757.6l43.14 43.14v99.07c-2.86.79-4.97 3.39-4.97 6.51 0 3.74 3.03 6.77 6.77 6.77 3.74 0 6.78-3.03 6.78-6.77-.01-3.12-2.12-5.72-4.98-6.51z"/><path class="st1" d="M222.07 893.81V793.24l-43.13-43.13V625.76h37.91V269.02h-3.61v353.14h-37.91V751.6l43.14 43.13v99.08c-2.86.78-4.98 3.39-4.98 6.5 0 3.74 3.04 6.77 6.78 6.77s6.77-3.03 6.77-6.77c0-3.12-2.11-5.71-4.97-6.5zM35.52 594.83c3.11 0 5.71-2.11 6.5-4.97h35.8v-62.49l-43.14-43.14V314.95h37.91V3.14h-3.6v308.21H31.08v174.37l43.13 43.14v57.39H42.02c-.79-2.86-3.38-4.97-6.5-4.97-3.74 0-6.78 3.03-6.78 6.77 0 3.74 3.04 6.78 6.78 6.78z"/><path class="st1" d="M45.77 478.33l43.14 43.13v85.68H68.46c-.79-2.86-3.39-4.97-6.51-4.97-3.74 0-6.78 3.03-6.78 6.77 0 3.74 3.04 6.78 6.78 6.78 3.11 0 5.71-2.11 6.51-4.97h24.06v-90.77l-43.13-43.13V329.52H87.3V-4.25h-3.6v330.17H45.77v152.41z"/><path class="st1" d="M62.18 472.31l43.13 43.14V628.6c-2.86.79-4.98 3.39-4.98 6.5a6.78 6.78 0 0 0 6.78 6.78c3.75 0 6.78-3.03 6.78-6.78 0-3.12-2.11-5.7-4.97-6.5V513.96l-43.14-43.13V346.48h37.91V-10.26h-3.6v353.14H62.18v129.43z"/><path class="st1" d="M83.74 440.65c-2.86.8-4.97 3.39-4.97 6.5a6.78 6.78 0 0 0 6.78 6.78c3.74 0 6.77-3.04 6.77-6.78 0-3.11-2.11-5.71-4.97-6.5v-75.24h37.91V53.6h-3.61v308.21H83.74v78.84z"/><path class="st1" d="M98.44 463.18c-2.86.79-4.97 3.38-4.97 6.5 0 3.74 3.04 6.78 6.77 6.78 3.74 0 6.78-3.04 6.78-6.78 0-3.12-2.11-5.71-4.97-6.5v-83.2h37.91V46.22h-3.6v330.16H98.44v86.8z"/><path class="st1" d="M114.83 479.4c-2.86.8-4.97 3.39-4.97 6.51 0 3.74 3.04 6.77 6.78 6.77s6.78-3.03 6.78-6.77c0-3.12-2.12-5.71-4.98-6.51v-82.46h37.92V40.2h-3.61v353.14h-37.91v86.06z"/><path class="st1" d="M132.27 572.89h41.51V466.55h-21.51v60.62c-2.86.79-4.98 3.38-4.98 6.5a6.775 6.775 0 0 0 13.55 0c0-3.11-2.11-5.7-4.97-6.5v-57.02h14.3v99.13h-34.3V442.22h37.91v-304.4h-3.61v300.8h-37.91v134.27zM-79.28 753.73h32.92V519.52l-34.92-32.45V387.05h38.25V223.7c2.86-.8 4.97-3.39 4.97-6.51 0-3.74-3.03-6.77-6.77-6.77-3.74 0-6.77 3.03-6.77 6.77 0 3.12 2.11 5.71 4.97 6.51v159.75h-38.25v105.19l34.92 32.44v229.04h-32.92v169.47l43.13 43.13v135.16h3.61V961.23l-43.13-43.13V753.73z"/><path class="st1" d="M-64.58 770.42h37.91V510.27l-37.91-38.29v-67.3h37.97V164.26c2.86-.8 4.97-3.39 4.97-6.5 0-3.74-3.04-6.78-6.78-6.78a6.77 6.77 0 0 0-6.77 6.78c0 3.12 2.11 5.71 4.97 6.5v236.8h-37.97v72.38l37.91 38.3v255.07h-37.91v152.41l43.13 43.14v112.35h3.6V960.87l-43.13-43.13V770.42z"/><path class="st1" d="M-7.04 1048.59V948.02l-43.13-43.13V780.55h37.91V216.93h-3.6v560.01h-37.91v129.44l43.13 43.14v99.07c-2.86.8-4.97 3.39-4.97 6.51 0 3.74 3.03 6.77 6.77 6.77a6.77 6.77 0 0 0 6.78-6.77 6.767 6.767 0 0 0-4.98-6.51zM-90.8 726.03V547.99l-43.14-43.14V335.58h37.91V23.77h-3.6v308.21h-37.91v174.36l43.13 43.14v176.54c-2.86.8-4.97 3.39-4.97 6.51a6.78 6.78 0 0 0 6.78 6.78c3.74 0 6.77-3.04 6.77-6.78 0-3.1-2.11-5.7-4.97-6.5z"/><path class="st1" d="M-84.69 692.88a6.78 6.78 0 0 0 6.78 6.78 6.78 6.78 0 0 0 6.78-6.78c0-3.11-2.12-5.71-4.98-6.51V540.6l-43.13-43.14V350.15h37.91V16.38h-3.6v330.16h-37.91v152.41l43.14 43.14v144.28c-2.87.8-4.99 3.4-4.99 6.51z"/><path class="st1" d="M-106.44 492.95l43.13 43.13v115.45c-2.86.79-4.98 3.39-4.98 6.5 0 3.75 3.04 6.78 6.77 6.78a6.78 6.78 0 0 0 6.78-6.78c0-3.11-2.12-5.7-4.97-6.5V534.59l-43.14-43.14V367.12h37.91V10.37h-3.61v353.14h-37.91v129.44zm495.72 543.44V913.02l-43.13-43.13V700.61h37.91V295.82h-3.6V697h-37.91v174.38l43.13 43.14v121.87c-2.86.78-4.97 3.39-4.97 6.5 0 3.74 3.03 6.79 6.78 6.79 3.74 0 6.77-3.04 6.77-6.79-.01-3.12-2.12-5.71-4.98-6.5z"/><path class="st1" d="M403.97 1006.19V905.63l-43.13-43.14V715.17h37.91V288.43h-3.6v423.15h-37.91v152.41l43.13 43.13v99.07c-2.86.79-4.97 3.39-4.97 6.5a6.775 6.775 0 0 0 13.55 0c0-3.11-2.12-5.71-4.98-6.5z"/><path class="st1" d="M420.37 1000.18V899.62l-43.13-43.14V732.14h37.91V282.42h-3.61v446.11h-37.91v129.45l43.14 43.13v99.07c-2.86.8-4.97 3.39-4.97 6.51 0 3.74 3.03 6.77 6.77 6.77 3.74 0 6.78-3.03 6.78-6.77 0-3.11-2.12-5.72-4.98-6.51zM272.51 692.63h-65.39c-.8-2.86-3.39-4.98-6.51-4.98-3.74 0-6.78 3.04-6.78 6.77 0 3.75 3.03 6.78 6.78 6.78 3.11 0 5.71-2.11 6.51-4.97h68.99v-62.49l-43.13-43.14V421.33h37.91V109.52h-3.61v308.2h-37.91V592.1l43.14 43.13v57.4z"/><path class="st1" d="M247.68 435.9h37.91V102.13h-3.61V432.3h-37.91v152.41l43.13 43.13v85.68h-53.66c-.79-2.86-3.39-4.97-6.5-4.97-3.74 0-6.77 3.03-6.77 6.77 0 3.74 3.03 6.77 6.77 6.77 3.12 0 5.71-2.12 6.5-4.98h57.27v-90.77l-43.14-43.14V435.9z"/><path class="st1" d="M307.22 779.48V620.34l-43.14-43.13V452.86h37.91V96.12h-3.6v353.14h-37.91V578.7l43.13 43.13v157.65c-2.86.79-4.97 3.38-4.97 6.49a6.77 6.77 0 0 0 6.77 6.78 6.78 6.78 0 0 0 6.78-6.78c0-3.1-2.11-5.7-4.97-6.49z"/><path class="st1" d="M282.04 547.04c-2.86.8-4.97 3.38-4.97 6.5 0 3.74 3.03 6.78 6.77 6.78 3.74 0 6.77-3.04 6.77-6.78 0-3.12-2.11-5.71-4.97-6.5V471.8h37.91V159.99h-3.61V468.2h-37.91v78.84z"/><path class="st1" d="M296.74 569.57c-2.86.79-4.97 3.38-4.97 6.5 0 3.75 3.04 6.78 6.77 6.78a6.78 6.78 0 0 0 6.78-6.78c0-3.12-2.11-5.71-4.97-6.5v-83.2h37.91V152.6h-3.6v330.16h-37.91v86.81z"/><path class="st1" d="M316.74 585.79v-82.46h37.92V146.59h-3.61v353.13h-37.91v86.07c-2.86.79-4.97 3.39-4.97 6.51 0 3.74 3.03 6.77 6.77 6.77a6.77 6.77 0 0 0 6.78-6.77c0-3.13-2.12-5.72-4.98-6.51z"/><path class="st1" d="M372.08 572.93h-21.51v60.62c-2.86.79-4.97 3.39-4.97 6.5 0 3.74 3.04 6.78 6.77 6.78 3.74 0 6.78-3.04 6.78-6.78 0-3.11-2.11-5.71-4.97-6.5v-57.02h14.31v99.13h-34.3V548.6h37.91V244.2h-3.6V545h-37.91v134.28h41.51V572.93zm350.61 611.97v-123.36l-43.13-43.14V775.83H572.4v-452.1h-3.6v455.7h107.15v240.46l43.14 43.14v121.87c-2.86.8-4.98 3.37-4.98 6.5 0 3.74 3.04 6.77 6.78 6.77s6.77-3.03 6.77-6.77c0-3.12-2.11-5.71-4.97-6.5z"/><path class="st1" d="M737.39 1154.71v-100.56l-43.14-43.14V759.3H587.09V323.73h-3.6V762.9h107.15v249.59l43.15 43.14v99.07c-2.87.8-4.98 3.39-4.98 6.51 0 3.73 3.04 6.77 6.77 6.77 3.75 0 6.77-3.04 6.77-6.77 0-3.12-2.11-5.71-4.96-6.5z"/><path class="st1" d="M603.39 701.64c3.11 0 5.71-2.11 6.5-4.97h35.79v-62.49l-43.13-43.14V421.76h37.91v-311.8h-3.61v308.2h-37.9v174.37l43.13 43.13v57.4h-32.19c-.79-2.86-3.39-4.97-6.5-4.97-3.75 0-6.79 3.04-6.79 6.78 0 3.73 3.04 6.77 6.79 6.77z"/><path class="st1" d="M613.64 585.14l43.12 43.14v85.67h-20.45c-.79-2.86-3.39-4.97-6.5-4.97a6.77 6.77 0 0 0-6.78 6.77c0 3.74 3.04 6.78 6.78 6.78 3.11 0 5.71-2.11 6.5-4.97h24.06v-90.78l-43.13-43.13V436.33h37.91V102.57h-3.6v330.16h-37.91v152.41z"/><path class="st1" d="M630.03 579.13l43.13 43.13V735.4c-2.86.8-4.97 3.39-4.97 6.51 0 3.74 3.04 6.77 6.78 6.77 3.75 0 6.77-3.03 6.77-6.77 0-3.11-2.11-5.71-4.97-6.51V620.77l-43.13-43.14V453.29h37.91V96.55h-3.59v353.14h-37.92v129.44z"/><path class="st1" d="M651.6 547.46c-2.86.8-4.97 3.39-4.97 6.51 0 3.74 3.03 6.77 6.77 6.77 3.74 0 6.77-3.03 6.77-6.77 0-3.12-2.11-5.71-4.97-6.51v-75.24h37.91v-311.8h-3.6v308.21H651.6v78.83z"/><path class="st1" d="M666.3 570c-2.86.79-4.98 3.38-4.98 6.5 0 3.74 3.04 6.78 6.77 6.78 3.74 0 6.78-3.04 6.78-6.78 0-3.12-2.11-5.71-4.98-6.5v-83.2h37.91V153.02h-3.61v330.17H666.3V570z"/><path class="st1" d="M682.7 586.21c-2.86.8-4.98 3.39-4.98 6.51 0 3.74 3.04 6.77 6.78 6.77 3.75 0 6.77-3.03 6.77-6.77 0-3.12-2.11-5.71-4.98-6.51v-82.46h37.91V147.02h-3.61v353.13H682.7v86.06z"/><path class="st1" d="M700.13 679.7h41.52V573.36h-21.51v60.62c-2.86.78-4.98 3.38-4.98 6.51 0 3.74 3.03 6.77 6.77 6.77 3.75 0 6.77-3.03 6.77-6.77 0-3.12-2.11-5.71-4.96-6.51v-57.01h14.3v99.13h-34.3V549.03h37.91v-304.4h-3.61v300.79h-37.91V679.7zm-139.31 475.69v-100.56l-43.14-43.14V887.35h37.91V323.73h-3.61v560.02h-37.91v129.45l43.13 43.13v99.07c-2.86.8-4.97 3.39-4.97 6.5 0 3.76 3.03 6.79 6.77 6.79 3.75 0 6.77-3.03 6.77-6.79.02-3.12-2.09-5.71-4.95-6.51zm-83.76-322.55V654.8l-43.14-43.13V442.39h37.91V130.58h-3.6v308.2h-37.91v174.38l43.13 43.13v176.54c-2.86.79-4.97 3.39-4.97 6.51 0 3.74 3.03 6.77 6.77 6.77a6.77 6.77 0 0 0 6.78-6.77c.01-3.12-2.1-5.71-4.97-6.5z"/><path class="st1" d="M483.18 799.69c0 3.75 3.04 6.78 6.77 6.78 3.75 0 6.77-3.03 6.77-6.78 0-3.12-2.11-5.71-4.97-6.5V647.41l-43.13-43.13V456.96h37.91V123.19h-3.6v330.17h-37.91v152.41l43.13 43.13v144.29c-2.86.79-4.97 3.39-4.97 6.5z"/><path class="st1" d="M461.42 599.75l43.13 43.14v115.45c-2.86.79-4.98 3.39-4.98 6.5a6.77 6.77 0 0 0 6.77 6.78c3.75 0 6.78-3.03 6.78-6.78 0-3.11-2.11-5.7-4.98-6.5V641.4l-43.13-43.14V473.92h37.91V117.18h-3.61v353.13H461.4v129.44zm580.75 288.24V764.62l-43.13-43.13V478.92H891.88V26.82h-3.59v455.7h107.14v240.46l43.14 43.14v121.87c-2.86.79-4.98 3.39-4.98 6.51 0 3.73 3.04 6.77 6.78 6.77 3.75 0 6.77-3.04 6.77-6.77.01-3.12-2.11-5.72-4.97-6.51z"/><path class="st1" d="M1056.86 857.79V757.24l-43.13-43.14V462.39H906.58V26.82h-3.61v439.17h107.15v249.6l43.13 43.13v99.07a6.744 6.744 0 0 0-4.97 6.51c0 3.74 3.03 6.77 6.77 6.77 3.75 0 6.78-3.04 6.78-6.77 0-3.11-2.1-5.71-4.97-6.51zm21.46-117.89V616.54l-43.14-43.14V404.12h37.91V92.32h-3.59v308.2h-37.91v174.37l43.13 43.14V739.9c-2.86.79-4.97 3.38-4.97 6.5 0 3.74 3.03 6.78 6.77 6.78 3.75 0 6.78-3.03 6.78-6.78-.01-3.11-2.11-5.7-4.98-6.5z"/><path class="st1" d="M1093.01 709.7V609.14L1049.88 566V418.69h37.91V84.93h-3.61v330.16h-37.91V567.5l43.14 43.14v99.07c-2.86.8-4.98 3.39-4.98 6.51 0 3.74 3.04 6.77 6.78 6.77 3.73 0 6.77-3.04 6.77-6.77 0-3.13-2.1-5.72-4.97-6.52z"/><path class="st1" d="M1109.41 703.7V603.13L1066.28 560V435.66h37.91V78.92h-3.61v353.14h-37.91V561.5l43.14 43.13v99.08c-2.86.79-4.98 3.39-4.98 6.5 0 3.74 3.04 6.77 6.78 6.77s6.77-3.03 6.77-6.77c.01-3.12-2.1-5.71-4.97-6.51zM922.87 404.72c3.12 0 5.71-2.11 6.51-4.97h35.79v-62.49l-43.14-43.14V124.85h37.91v-311.81h-3.61v308.21h-37.91v174.37l43.13 43.14v57.39h-32.19c-.79-2.86-3.39-4.97-6.51-4.97-3.74 0-6.78 3.03-6.78 6.77.01 3.73 3.06 6.77 6.8 6.77z"/><path class="st1" d="M933.12 288.22l43.14 43.13v85.68H955.8c-.79-2.86-3.39-4.97-6.51-4.97-3.74 0-6.77 3.03-6.77 6.77 0 3.74 3.04 6.78 6.77 6.78 3.11 0 5.71-2.11 6.51-4.97h24.05v-90.77l-43.13-43.13V139.42h37.91v-333.77h-3.61v330.17h-37.91v152.4z"/><path class="st1" d="M949.52 282.21l43.13 43.14V438.5c-2.86.79-4.98 3.39-4.98 6.5 0 3.74 3.04 6.78 6.78 6.78 3.75 0 6.78-3.03 6.78-6.78 0-3.11-2.11-5.7-4.97-6.5V323.86l-43.14-43.13V156.38h37.9v-356.74h-3.59v353.14h-37.91v129.43zm111.61-5.76h-21.52v60.62c-2.86.8-4.97 3.39-4.97 6.5 0 3.74 3.04 6.77 6.77 6.77 3.74 0 6.77-3.03 6.77-6.77 0-3.11-2.11-5.7-4.97-6.5v-57.02h14.31v99.13h-34.31V252.12h37.91v-304.4h-3.61v300.79h-37.91v134.28h41.52V276.45zM808.07 563.63h32.92V329.41l-34.92-32.45V196.94h38.25V33.6c2.86-.8 4.98-3.39 4.98-6.51 0-3.74-3.04-6.77-6.77-6.77a6.77 6.77 0 0 0-6.78 6.77c0 3.12 2.11 5.72 4.98 6.51v159.75h-38.26v105.19l34.92 32.44v229.04h-32.92v169.47l43.13 43.13v129s.5-.08 0 0c-1.8.28-5.31 3.68-1.21 7.35.39.34 1.71 1 2.92 1 .91.01 2.82-.71 3.22-1.09 3.46-3.22.43-7.04-.85-7.27-.15-.03-.47-.19-.47-.19v-130.3l-43.13-43.13V563.63z"/><path class="st1" d="M822.76 580.32h37.91V320.16l-37.91-38.29v-67.3h37.97V-25.84c2.86-.8 4.98-3.39 4.98-6.5a6.78 6.78 0 0 0-6.78-6.78c-3.74 0-6.77 3.04-6.77 6.78 0 3.11 2.11 5.71 4.98 6.5v236.8h-37.98v72.38l37.91 38.3v255.07h-37.91v152.41l43.14 43.14v112.35h3.6V770.77l-43.13-43.13V580.32z"/><path class="st1" d="M880.3 858.49V757.92l-43.13-43.14V590.44h37.91V26.82h-3.61v560.01h-37.91v129.45l43.13 43.13v99.07c-2.86.79-4.98 3.39-4.98 6.5 0 3.74 3.04 6.77 6.77 6.77a6.77 6.77 0 0 0 6.78-6.77c.02-3.1-2.1-5.7-4.96-6.49zm-83.75-322.57V357.89l-43.14-43.14V145.48h37.91v-311.81h-3.61v308.21H749.8v174.37l.21.21v380.98H712.1V871.8l43.13 43.14v121.87c-2.86.8-4.97 3.39-4.97 6.5 0 3.75 3.03 6.79 6.77 6.79 3.74 0 6.78-3.04 6.78-6.79 0-3.11-2.12-5.7-4.98-6.5V913.44l-43.14-43.13V701.04h37.91V320.05l11.09 11.09V712h-37.91v152.41l43.15 43.14v99.07c-2.87.8-4.98 3.39-4.98 6.5 0 3.75 3.03 6.79 6.77 6.79 3.73 0 6.77-3.04 6.77-6.79 0-3.11-2.11-5.7-4.97-6.5V906.06l-43.12-43.15v-147.3h37.9V334.75l12.8 12.8v381.41h-37.9v129.45l43.13 43.14v99.07c-2.86.8-4.98 3.39-4.98 6.5 0 3.75 3.04 6.77 6.78 6.77s6.77-3.03 6.77-6.77c0-3.11-2.11-5.71-4.98-6.5V900.04l-43.13-43.13V732.57h37.91V351.15l8.23 8.23v176.54c-2.86.8-4.98 3.39-4.98 6.51 0 3.74 3.04 6.77 6.78 6.77s6.77-3.03 6.77-6.77c.01-3.11-2.1-5.71-4.95-6.51z"/><path class="st1" d="M802.66 502.78c0 3.74 3.04 6.78 6.78 6.78s6.77-3.04 6.77-6.78c0-3.11-2.12-5.71-4.98-6.51V350.5l-43.14-43.14V160.05H806v-333.77h-3.61v330.16H764.5v152.41l43.13 43.13v144.28c-2.86.81-4.97 3.41-4.97 6.52z"/><path class="st1" d="M780.9 302.84l43.13 43.14v115.45c-2.86.79-4.98 3.39-4.98 6.5 0 3.74 3.04 6.78 6.77 6.78 3.74 0 6.78-3.04 6.78-6.78 0-3.11-2.12-5.7-4.98-6.5V344.49l-43.13-43.14V177.01h37.91v-356.74h-3.61V173.4H780.9v129.44zm495.73 543.45V722.92l-43.14-43.14V510.51h37.91V198.7h-3.6v308.2h-37.91v241.53c-2.86.79-4.98 3.39-4.98 6.5 0 3.74 3.04 6.77 6.77 6.77 3.74 0 6.78-3.04 6.78-6.77 0-3.12-2.11-5.71-4.98-6.5v-63.56l11.09 11.09v109.25c-2.87.79-4.97 3.39-4.97 6.5 0 3.74 3.03 6.77 6.77 6.77a6.77 6.77 0 0 0 6.78-6.77c0-3.11-2.11-5.71-4.97-6.5V699.57l24.83 24.84v121.88c-2.86.79-4.97 3.38-4.97 6.49a6.77 6.77 0 0 0 6.77 6.78c3.75 0 6.77-3.03 6.77-6.78.01-3.1-2.09-5.7-4.95-6.49z"/><path class="st1" d="M1291.31 816.09V715.53l-43.13-43.14V525.07h37.9V191.31h-3.6v330.17h-37.91v152.41l43.13 43.13v99.07c-2.86.79-4.98 3.39-4.98 6.5 0 3.75 3.04 6.77 6.77 6.77 3.74 0 6.78-3.03 6.78-6.77.02-3.11-2.1-5.71-4.96-6.5z"/><path class="st1" d="M1307.71 810.08V709.51l-43.13-43.13V542.04h37.91V185.3h-3.61v353.14h-37.91v129.44l43.14 43.14v99.07c-2.87.8-4.98 3.39-4.98 6.51 0 3.74 3.04 6.78 6.78 6.78s6.78-3.04 6.78-6.78c.01-3.13-2.11-5.73-4.98-6.52zm-147.85-307.55h-65.39c-.79-2.86-3.39-4.97-6.51-4.97-3.74 0-6.77 3.03-6.77 6.77a6.77 6.77 0 0 0 6.77 6.78c3.11 0 5.71-2.11 6.51-4.97h69v-62.49l-43.13-43.14V231.23h37.91V-80.58h-3.61v308.2h-37.9V402l43.13 43.13v57.4z"/><path class="st1" d="M1135.02 245.8h37.91V-87.97h-3.61V242.2h-37.9v152.41l43.13 43.13v85.68h-53.65c-.8-2.86-3.39-4.97-6.51-4.97-3.75 0-6.77 3.03-6.77 6.77 0 3.74 3.03 6.77 6.77 6.77 3.11 0 5.71-2.12 6.51-4.97h57.27v-90.77l-43.14-43.14V245.8z"/><path class="st1" d="M1194.56 589.38V430.24l-43.13-43.13V262.76h37.9V-93.98h-3.59v353.14h-37.91V388.6l43.13 43.13v157.65c-2.85.79-4.97 3.38-4.97 6.5a6.78 6.78 0 0 0 6.78 6.78 6.77 6.77 0 0 0 6.77-6.78c-.01-3.12-2.11-5.71-4.98-6.5z"/><path class="st1" d="M1169.39 356.93c-2.86.8-4.96 3.39-4.96 6.51 0 3.74 3.02 6.78 6.78 6.78 3.74 0 6.77-3.04 6.77-6.78 0-3.12-2.11-5.71-4.97-6.51v-75.24h37.91v-311.8h-3.6V278.1h-37.91v78.83z"/><path class="st1" d="M1184.08 379.46c-2.86.79-4.97 3.38-4.97 6.5 0 3.75 3.03 6.77 6.77 6.77 3.74 0 6.78-3.03 6.78-6.77 0-3.12-2.11-5.71-4.98-6.5v-83.2h37.91V-37.5h-3.61v330.16h-37.91v86.8z"/><path class="st1" d="M1204.08 395.68v-82.46H1242V-43.51h-3.6v353.14h-37.91v86.06c-2.86.79-4.98 3.39-4.98 6.51 0 3.74 3.03 6.77 6.77 6.77a6.77 6.77 0 0 0 6.78-6.77c0-3.13-2.11-5.72-4.98-6.52z"/><path class="st1" d="M1259.43 382.83h-21.52v60.62c-2.85.79-4.97 3.39-4.97 6.5 0 3.74 3.04 6.78 6.77 6.78s6.78-3.04 6.78-6.78c0-3.11-2.12-5.71-4.98-6.5v-57.02h14.31v99.13h-34.31V358.5h37.91V54.1h-3.6v300.8h-37.91v134.28h41.51V382.83z"/></g><g class="st0"><path class="st1" d="M1566.64 642.74l-43.13-43.13V430.32h37.91v-311.8h-3.6v308.21h-37.91V601.1l43.13 43.13v57.4h-32.19c-.8-2.86-3.39-4.98-6.5-4.98-3.74 0-6.78 3.04-6.78 6.78 0 3.73 3.04 6.77 6.78 6.77 3.11 0 5.71-2.12 6.5-4.98h35.79v-62.48z"/><path class="st1" d="M1538.2 444.9h37.91V111.13h-3.6v330.16h-37.91V593.7l43.13 43.14v85.68h-20.45c-.79-2.86-3.39-4.97-6.51-4.97-3.74 0-6.78 3.03-6.78 6.77 0 3.74 3.04 6.78 6.78 6.78 3.11 0 5.71-2.11 6.5-4.97h24.06v-90.78l-43.13-43.13V444.9z"/><path class="st1" d="M1597.73 743.97V629.34l-43.14-43.14V461.86h37.91V105.12h-3.6v353.14h-37.91V587.7l43.13 43.13v113.14c-2.86.8-4.97 3.4-4.97 6.51 0 3.73 3.04 6.77 6.78 6.77 3.75 0 6.77-3.04 6.77-6.77 0-3.11-2.1-5.71-4.97-6.51z"/><path class="st1" d="M1572.56 556.03c-2.86.8-4.97 3.39-4.97 6.5 0 3.74 3.03 6.78 6.77 6.78 3.74 0 6.78-3.04 6.78-6.78 0-3.11-2.11-5.71-4.97-6.5v-75.24h37.91v-311.8h-3.6V477.2h-37.91v78.83z"/><path class="st1" d="M1587.26 578.56c-2.86.79-4.98 3.39-4.98 6.51 0 3.74 3.04 6.77 6.78 6.77s6.77-3.03 6.77-6.77c0-3.12-2.11-5.71-4.97-6.51v-83.2h37.91V161.59h-3.6v330.17h-37.91v86.8z"/><path class="st1" d="M1607.26 594.78v-82.46h37.91V155.59h-3.61v353.13h-37.91v86.06c-2.86.8-4.98 3.39-4.98 6.51 0 3.74 3.04 6.77 6.78 6.77s6.77-3.03 6.77-6.77c.02-3.12-2.1-5.72-4.96-6.51z"/><path class="st1" d="M1659 553.99h-37.91v134.28h41.52V581.93h-21.51v60.62c-2.86.78-4.98 3.39-4.98 6.51 0 3.73 3.03 6.76 6.78 6.76 3.74 0 6.77-3.03 6.77-6.76 0-3.13-2.11-5.71-4.97-6.51v-57.01h14.3v99.13h-34.3V557.59h37.91v-304.4H1659v300.8zm-260.98 287.42V663.36l-43.14-43.13V450.96h37.91V139.15h-3.6v308.2h-37.91v174.38l43.14 43.14v176.54c-2.86.79-4.98 3.39-4.98 6.51 0 3.74 3.04 6.77 6.78 6.77s6.78-3.03 6.78-6.77c0-3.13-2.12-5.72-4.98-6.51z"/><path class="st1" d="M1412.71 801.75V655.98l-43.13-43.13V465.53h37.91V131.76h-3.6v330.16h-37.91v152.41l43.13 43.14v144.28c-2.86.8-4.98 3.39-4.98 6.51 0 3.75 3.04 6.77 6.78 6.77s6.77-3.03 6.77-6.77c0-3.12-2.11-5.72-4.97-6.51z"/><path class="st1" d="M1429.11 766.91V649.97l-43.13-43.14V482.49h37.91V125.75h-3.6v353.13h-37.91v129.44l43.13 43.13v115.46c-2.86.79-4.97 3.39-4.97 6.5a6.78 6.78 0 1 0 13.56 0c-.01-3.11-2.13-5.7-4.99-6.5zm534.02 129.65V773.19l-43.14-43.13V487.48h-107.15V35.39h-3.6v455.69h107.14v240.46l43.14 43.14v121.87c-2.86.8-4.98 3.39-4.98 6.5 0 3.74 3.04 6.77 6.78 6.77s6.78-3.03 6.78-6.77c.01-3.1-2.11-5.71-4.97-6.49zm376.89 120.12V886.51l-43.13-43.14V679h32.92V444.78l-34.92-32.44V312.33h38.25V148.97c2.86-.79 4.97-3.39 4.97-6.5a6.77 6.77 0 0 0-6.77-6.78c-3.73 0-6.77 3.03-6.77 6.78 0 3.11 2.12 5.7 4.97 6.5v159.74h-38.25v105.2l34.92 32.45V675.4h-32.92v169.46l43.13 43.14v128.63c-2.91.76-5.07 3.37-5.07 6.53 0 3.75 3.04 6.77 6.77 6.77 3.75 0 6.79-3.03 6.79-6.77-.01-3.09-2.08-5.65-4.89-6.48z"/><path class="st1" d="M2354.73 993.62V886.15l-43.15-43.14v-147.3h37.91V435.55l-37.91-38.3v-67.3h37.98V89.54c2.85-.8 4.97-3.39 4.97-6.51 0-3.74-3.04-6.77-6.77-6.77-3.74 0-6.78 3.04-6.78 6.77 0 3.12 2.11 5.71 4.97 6.51v236.8h-37.97v72.39l37.91 38.3V692.1h-37.91v152.41l43.14 43.14v105.74a6.769 6.769 0 0 0-5.36 6.62c0 3.73 3.03 6.76 6.77 6.76 3.73 0 6.78-3.03 6.78-6.76 0-2.98-1.93-5.47-4.58-6.39zm-376.91-127.26V765.8l-43.13-43.14v-251.7h-107.15V35.39h-3.61v439.17h107.15v249.59l43.14 43.14v99.07a6.746 6.746 0 0 0-4.97 6.51c0 3.73 3.03 6.77 6.77 6.77 3.75 0 6.77-3.04 6.77-6.77 0-3.12-2.11-5.72-4.97-6.51zm21.46-117.89V625.11l-43.14-43.14V412.69h37.91v-311.8h-3.6v308.2h-37.91v174.37l43.13 43.14v121.88c-2.86.79-4.97 3.38-4.97 6.5 0 3.75 3.04 6.77 6.77 6.77a6.77 6.77 0 0 0 6.78-6.77c0-3.12-2.11-5.71-4.97-6.51z"/><path class="st1" d="M2013.97 718.28V617.71l-43.13-43.14V427.26h37.91V93.49h-3.61v330.16h-37.91v152.41l43.14 43.14v99.07c-2.86.79-4.97 3.39-4.97 6.51 0 3.74 3.03 6.77 6.77 6.77 3.74 0 6.78-3.03 6.78-6.77a6.755 6.755 0 0 0-4.98-6.5z"/><path class="st1" d="M2030.37 712.27V611.7l-43.13-43.13V444.22h37.91V87.48h-3.61v353.14h-37.91v129.44l43.14 43.13v99.08c-2.86.78-4.98 3.39-4.98 6.5 0 3.74 3.04 6.77 6.78 6.77s6.77-3.03 6.77-6.77c.01-3.11-2.11-5.71-4.97-6.5zm-186.54-298.98c3.11 0 5.71-2.11 6.5-4.97h35.8v-62.49l-43.14-43.14V133.42h37.91V-178.4h-3.6v308.21h-37.91v174.37l43.13 43.14v57.39h-32.19c-.79-2.86-3.38-4.97-6.5-4.97-3.74 0-6.78 3.03-6.78 6.77-.01 3.74 3.03 6.78 6.78 6.78z"/><path class="st1" d="M1854.07 296.79l43.14 43.13v85.68h-20.45c-.79-2.86-3.39-4.97-6.51-4.97-3.74 0-6.78 3.03-6.78 6.77 0 3.74 3.04 6.78 6.78 6.78 3.11 0 5.71-2.11 6.51-4.97h24.05v-90.77l-43.13-43.13V147.98h37.91v-333.77h-3.6v330.17h-37.91v152.41z"/><path class="st1" d="M1870.48 290.78l43.13 43.14v113.15c-2.86.79-4.98 3.39-4.98 6.5a6.78 6.78 0 0 0 6.78 6.78c3.75 0 6.78-3.03 6.78-6.78 0-3.12-2.11-5.7-4.97-6.5V332.42l-43.14-43.13V164.95h37.91V-191.8h-3.6v353.14h-37.91v129.44z"/><path class="st1" d="M1892.04 259.12c-2.86.8-4.97 3.39-4.97 6.5a6.78 6.78 0 1 0 13.56 0c0-3.11-2.11-5.71-4.97-6.5v-75.24h37.91v-311.81h-3.61v308.21h-37.91v78.84z"/><path class="st1" d="M1906.74 281.65c-2.86.79-4.97 3.38-4.97 6.5 0 3.74 3.04 6.78 6.77 6.78 3.74 0 6.78-3.04 6.78-6.78 0-3.12-2.11-5.71-4.97-6.5v-83.2h37.91v-333.77h-3.6v330.16h-37.91v86.81z"/><path class="st1" d="M1923.14 297.87c-2.86.8-4.97 3.39-4.97 6.51 0 3.74 3.04 6.77 6.78 6.77s6.78-3.03 6.78-6.77c0-3.12-2.12-5.71-4.98-6.51v-82.46h37.92v-356.75h-3.61V211.8h-37.91v86.07z"/><path class="st1" d="M1940.57 391.36h41.51V285.02h-21.51v60.62c-2.86.79-4.98 3.38-4.98 6.5 0 3.74 3.04 6.77 6.78 6.77s6.78-3.03 6.78-6.77c0-3.11-2.11-5.7-4.97-6.5v-57.02h14.3v99.13h-34.3V260.68h37.91v-304.4h-3.61v300.8h-37.91v134.28zm-211.54 180.83h32.92V337.98l-34.92-32.45V205.51h38.25V42.17c2.86-.8 4.97-3.39 4.97-6.51 0-3.74-3.03-6.77-6.77-6.77-3.74 0-6.78 3.03-6.78 6.77 0 3.12 2.11 5.71 4.97 6.51v159.75h-38.25v105.19l34.92 32.44v229.04h-32.92v169.47l43.13 43.13v135.16h3.61V779.69l-43.13-43.13V572.19z"/><path class="st1" d="M1743.72 588.89h37.91V328.73l-37.91-38.29v-67.3h37.97V-17.27c2.86-.8 4.97-3.39 4.97-6.5 0-3.74-3.04-6.78-6.78-6.78a6.77 6.77 0 0 0-6.77 6.78c0 3.12 2.11 5.71 4.97 6.5v236.8h-37.97v72.38l37.91 38.3v255.07h-37.91v152.41l43.13 43.14v112.35h3.6V779.34l-43.13-43.13V588.89z"/><path class="st1" d="M1801.26 867.05V766.49l-43.13-43.13V599.01h37.91V35.39h-3.6V595.4h-37.91v129.44l43.13 43.14v99.07c-2.86.8-4.97 3.39-4.97 6.51 0 3.74 3.03 6.77 6.77 6.77a6.77 6.77 0 0 0 6.78-6.77c-.01-3.12-2.12-5.71-4.98-6.51zm-83.76-322.56V366.46l-43.14-43.14V154.05h37.91v-311.81h-3.6v308.21h-37.91v174.36l43.13 43.14v176.54c-2.86.8-4.97 3.39-4.97 6.51a6.78 6.78 0 0 0 6.78 6.78c3.74 0 6.77-3.04 6.77-6.78 0-3.11-2.11-5.71-4.97-6.51z"/><path class="st1" d="M1723.62 511.34a6.78 6.78 0 0 0 6.78 6.78 6.78 6.78 0 0 0 6.78-6.78c0-3.11-2.12-5.71-4.98-6.51V359.06l-43.13-43.14V168.61h37.91v-333.77h-3.6V165h-37.91v152.41l43.14 43.14v144.28c-2.88.81-4.99 3.4-4.99 6.51z"/><path class="st1" d="M1701.86 311.42l43.13 43.13V470c-2.86.79-4.98 3.39-4.98 6.5 0 3.75 3.04 6.78 6.77 6.78a6.78 6.78 0 0 0 6.78-6.78c0-3.11-2.12-5.7-4.97-6.5V353.05l-43.14-43.14V185.58h37.91v-356.75h-3.61v353.14h-37.91v129.45zm495.72 543.43V731.49l-43.13-43.13V519.07h37.91V114.29h-3.6v401.18h-37.91v174.38l43.13 43.14v121.87c-2.86.78-4.97 3.39-4.97 6.5 0 3.74 3.03 6.79 6.78 6.79 3.74 0 6.77-3.04 6.77-6.79-.01-3.12-2.12-5.71-4.98-6.51z"/><path class="st1" d="M2212.27 824.66V724.09l-43.13-43.14V533.64h37.91V106.9h-3.6v423.15h-37.91v152.41l43.13 43.13v99.07c-2.86.79-4.97 3.39-4.97 6.5a6.775 6.775 0 0 0 13.55 0c0-3.11-2.12-5.71-4.98-6.5z"/><path class="st1" d="M2228.67 818.65V718.08l-43.13-43.14V550.6h37.91V100.89h-3.61V547h-37.91v129.45l43.14 43.13v99.07c-2.86.8-4.97 3.39-4.97 6.51 0 3.74 3.03 6.77 6.77 6.77 3.74 0 6.78-3.03 6.78-6.77 0-3.12-2.12-5.72-4.98-6.51zm-147.85-307.56h-65.39c-.8-2.86-3.39-4.98-6.51-4.98-3.74 0-6.78 3.04-6.78 6.77 0 3.75 3.03 6.78 6.78 6.78 3.11 0 5.71-2.11 6.51-4.97h68.99V452.2l-43.13-43.14V239.79h37.91v-311.8h-3.61v308.2h-37.91v174.38l43.14 43.13v57.39z"/><path class="st1" d="M2055.98 254.37h37.91V-79.4h-3.61v330.17h-37.91v152.41l43.13 43.13v85.68h-53.66c-.79-2.86-3.39-4.97-6.5-4.97-3.74 0-6.77 3.03-6.77 6.77 0 3.74 3.03 6.77 6.77 6.77 3.12 0 5.71-2.12 6.5-4.98h57.27v-90.77l-43.14-43.14v-147.3z"/><path class="st1" d="M2115.52 597.95V438.81l-43.14-43.13V271.33h37.91V-85.42h-3.6v353.14h-37.91v129.44l43.13 43.13v157.65c-2.86.79-4.97 3.38-4.97 6.49a6.77 6.77 0 0 0 6.77 6.78 6.78 6.78 0 0 0 6.78-6.78c0-3.1-2.11-5.69-4.97-6.48z"/><path class="st1" d="M2090.35 365.5c-2.86.8-4.97 3.38-4.97 6.5 0 3.74 3.03 6.78 6.77 6.78 3.74 0 6.77-3.04 6.77-6.78 0-3.12-2.11-5.71-4.97-6.5v-75.24h37.91V-21.55h-3.61v308.21h-37.91v78.84z"/><path class="st1" d="M2105.04 388.03c-2.86.79-4.97 3.38-4.97 6.5a6.78 6.78 0 0 0 6.78 6.78 6.78 6.78 0 0 0 6.78-6.78c0-3.12-2.11-5.71-4.97-6.5v-83.2h37.91V-28.94h-3.6v330.16h-37.91v86.81z"/><path class="st1" d="M2125.04 404.25v-82.46h37.92V-34.95h-3.61v353.13h-37.91v86.07c-2.86.79-4.97 3.39-4.97 6.51 0 3.74 3.03 6.77 6.77 6.77a6.77 6.77 0 0 0 6.78-6.77c0-3.12-2.12-5.72-4.98-6.51z"/><path class="st1" d="M2180.38 391.39h-21.51v60.62c-2.86.79-4.97 3.39-4.97 6.5 0 3.74 3.04 6.78 6.77 6.78 3.74 0 6.78-3.04 6.78-6.78 0-3.11-2.11-5.71-4.97-6.5V395h14.31v99.13h-34.3V367.07h37.91V62.66h-3.6v300.8h-37.91v134.28h41.51V391.39zm350.61 611.98V880.01l-43.13-43.14V594.29H2380.7V142.2h-3.6v455.7h107.15v240.46l43.14 43.14v121.87c-2.86.8-4.98 3.37-4.98 6.5 0 3.74 3.04 6.77 6.78 6.77s6.78-3.03 6.78-6.77c0-3.13-2.12-5.72-4.98-6.5z"/><path class="st1" d="M2545.69 973.17V872.61l-43.14-43.14v-251.7H2395.4V142.2h-3.6v439.17h107.15v249.59l43.15 43.14v99.07c-2.87.8-4.98 3.39-4.98 6.51 0 3.73 3.04 6.77 6.77 6.77 3.75 0 6.77-3.04 6.77-6.77-.01-3.12-2.11-5.71-4.97-6.51z"/><path class="st1" d="M2411.69 520.1c3.11 0 5.71-2.11 6.5-4.97h35.79v-62.49l-43.13-43.14V240.22h37.91v-311.8h-3.61v308.2h-37.9v174.37l43.13 43.13v57.4h-32.19c-.79-2.86-3.39-4.97-6.5-4.97-3.75 0-6.79 3.04-6.79 6.78 0 3.73 3.04 6.77 6.79 6.77z"/><path class="st1" d="M2421.94 403.6l43.12 43.14v85.67h-20.45c-.79-2.86-3.39-4.97-6.5-4.97a6.77 6.77 0 0 0-6.78 6.77c0 3.74 3.04 6.78 6.78 6.78 3.11 0 5.71-2.11 6.5-4.97h24.05v-90.78l-43.13-43.13V254.8h37.91V-78.97h-3.6v330.16h-37.91V403.6z"/><path class="st1" d="M2438.34 397.59l43.13 43.13v113.14c-2.86.8-4.97 3.39-4.97 6.51 0 3.74 3.04 6.77 6.78 6.77 3.75 0 6.77-3.03 6.77-6.77 0-3.11-2.11-5.71-4.97-6.51V439.23l-43.13-43.14V271.75h37.91V-84.99h-3.59v353.14h-37.92v129.44z"/><path class="st1" d="M2459.91 365.93c-2.86.8-4.97 3.39-4.97 6.51 0 3.74 3.03 6.77 6.77 6.77 3.74 0 6.77-3.03 6.77-6.77 0-3.12-2.11-5.71-4.97-6.51v-75.24h37.91V-21.12h-3.6v308.21h-37.91v78.84z"/><path class="st1" d="M2474.6 388.46c-2.86.79-4.98 3.38-4.98 6.5 0 3.74 3.04 6.78 6.77 6.78 3.74 0 6.78-3.04 6.78-6.78 0-3.12-2.11-5.71-4.98-6.5v-83.2h37.91V-28.51h-3.61v330.17h-37.91v86.8z"/><path class="st1" d="M2491 404.68c-2.86.8-4.98 3.39-4.98 6.51 0 3.74 3.04 6.77 6.78 6.77 3.75 0 6.77-3.03 6.77-6.77 0-3.12-2.11-5.71-4.98-6.51v-82.46h37.91V-34.52h-3.61v353.13H2491v86.07z"/><path class="st1" d="M2508.43 498.17h41.52V391.83h-21.51v60.62c-2.86.78-4.98 3.38-4.98 6.51 0 3.74 3.03 6.77 6.77 6.77 3.75 0 6.77-3.03 6.77-6.77 0-3.12-2.11-5.71-4.96-6.51v-57.01h14.3v99.13h-34.3V367.49h37.91V63.1h-3.61v300.79h-37.91v134.28zm-139.31 475.69V873.3l-43.14-43.14V705.81h37.91V142.2h-3.61v560.02h-37.91v129.45l43.13 43.13v99.07c-2.86.8-4.97 3.39-4.97 6.5 0 3.76 3.03 6.79 6.77 6.79 3.75 0 6.77-3.03 6.77-6.79.02-3.12-2.09-5.71-4.95-6.51zm-83.76-322.56V473.26l-43.14-43.13V260.86h37.91V-50.96h-3.6v308.2h-37.91v174.38l43.13 43.13V651.3c-2.86.79-4.97 3.39-4.97 6.51 0 3.74 3.03 6.77 6.77 6.77a6.77 6.77 0 0 0 6.78-6.77c.01-3.12-2.1-5.72-4.97-6.51z"/><path class="st1" d="M2291.48 618.15c0 3.75 3.04 6.78 6.77 6.78 3.75 0 6.77-3.03 6.77-6.78 0-3.12-2.11-5.71-4.97-6.5V465.87l-43.13-43.13V275.42h37.91V-58.35h-3.6v330.17h-37.91v152.41l43.13 43.13v144.29c-2.86.8-4.97 3.39-4.97 6.5z"/><path class="st1" d="M2269.72 418.22l43.13 43.14v115.45c-2.86.79-4.98 3.39-4.98 6.5a6.77 6.77 0 0 0 6.77 6.78c3.75 0 6.78-3.03 6.78-6.78 0-3.11-2.11-5.7-4.98-6.5V459.87l-43.13-43.14V292.38h37.91V-64.35h-3.61v353.13h-37.91v129.44zm580.75 288.23V583.08l-43.13-43.13V297.38h-107.15v-452.09h-3.59v455.7h107.14v240.46l43.14 43.14v121.87c-2.86.79-4.98 3.39-4.98 6.51 0 3.73 3.04 6.77 6.78 6.77 3.75 0 6.77-3.04 6.77-6.77 0-3.13-2.11-5.72-4.98-6.52z"/><path class="st1" d="M2865.16 676.26V575.7l-43.13-43.14V280.85h-107.15v-435.57h-3.61v439.17h107.15v249.6l43.13 43.13v99.07a6.744 6.744 0 0 0-4.97 6.51c0 3.74 3.03 6.77 6.77 6.77 3.75 0 6.78-3.04 6.78-6.77.01-3.11-2.1-5.71-4.97-6.5zm21.46-117.89V435.01l-43.14-43.14V222.59h37.91V-89.22h-3.59v308.2h-37.91v174.37l43.13 43.14v121.88c-2.86.79-4.97 3.38-4.97 6.5 0 3.74 3.03 6.78 6.77 6.78 3.75 0 6.78-3.03 6.78-6.78 0-3.11-2.11-5.71-4.98-6.5z"/><path class="st1" d="M2901.31 528.17V427.61l-43.13-43.14V237.16h37.91V-96.61h-3.61v330.16h-37.91v152.41l43.14 43.14v99.07c-2.86.8-4.98 3.39-4.98 6.51 0 3.74 3.04 6.77 6.78 6.77 3.73 0 6.77-3.04 6.77-6.77.01-3.12-2.1-5.72-4.97-6.51z"/><path class="st1" d="M2917.72 522.17V421.59l-43.13-43.13V254.12h37.91v-356.74h-3.61v353.14h-37.91v129.44l43.14 43.13v99.08c-2.86.79-4.98 3.39-4.98 6.5 0 3.74 3.04 6.77 6.78 6.77s6.77-3.03 6.77-6.77c0-3.11-2.11-5.71-4.97-6.5zm-186.55-298.98c3.12 0 5.71-2.11 6.51-4.97h35.79v-62.49l-43.14-43.14V-56.69h37.91V-368.5h-3.61v308.21h-37.91v174.37l43.13 43.14v57.39h-32.19c-.79-2.86-3.39-4.97-6.51-4.97-3.74 0-6.78 3.03-6.78 6.77.02 3.74 3.06 6.78 6.8 6.78z"/><path class="st1" d="M2741.42 106.69l43.14 43.13v85.68h-20.45c-.79-2.86-3.39-4.97-6.51-4.97-3.74 0-6.77 3.03-6.77 6.77 0 3.74 3.04 6.78 6.77 6.78 3.11 0 5.71-2.11 6.51-4.97h24.05v-90.77l-43.13-43.13V-42.12h37.91v-333.77h-3.61v330.17h-37.91v152.41z"/><path class="st1" d="M2757.83 100.67l43.13 43.14v113.15c-2.86.79-4.98 3.39-4.98 6.5 0 3.74 3.04 6.78 6.77 6.78 3.75 0 6.78-3.03 6.78-6.78 0-3.11-2.11-5.7-4.97-6.5V142.32l-43.14-43.13V-25.16h37.9V-381.9h-3.59v353.14h-37.91v129.43zm111.6-5.76h-21.52v60.62c-2.86.8-4.97 3.39-4.97 6.5 0 3.74 3.04 6.77 6.77 6.77s6.77-3.03 6.77-6.77c0-3.11-2.11-5.7-4.97-6.5V98.51h14.31v99.13h-34.31V70.58h37.91v-304.4h-3.61V66.97h-37.91v134.28h41.52V94.91zm-253.06 287.18h32.92V147.88l-34.92-32.45V15.41h38.25v-163.35c2.86-.8 4.98-3.39 4.98-6.51 0-3.74-3.04-6.77-6.77-6.77a6.77 6.77 0 0 0-6.78 6.77c0 3.12 2.11 5.72 4.98 6.51V11.81h-38.26V117l34.92 32.44v229.04h-32.92v169.47l43.13 43.13v129s.5-.08 0 0c-1.8.28-5.31 3.68-1.21 7.35.39.34 1.71 1 2.92 1 .91.01 2.82-.71 3.22-1.09 3.46-3.22.43-7.04-.85-7.27-.15-.03-.47-.19-.47-.19v-130.3l-43.13-43.13V382.09z"/><path class="st1" d="M2631.06 398.79h37.91V138.63l-37.91-38.29v-67.3h37.97v-240.41c2.86-.8 4.98-3.39 4.98-6.5a6.78 6.78 0 0 0-6.78-6.78c-3.74 0-6.77 3.04-6.77 6.78 0 3.11 2.11 5.71 4.98 6.5v236.8h-37.98v72.38l37.91 38.3v255.07h-37.91v152.41l43.14 43.14v112.35h3.6V589.23l-43.13-43.13V398.79z"/><path class="st1" d="M2688.61 676.95V576.39l-43.13-43.14V408.91h37.91v-563.62h-3.61V405.3h-37.91v129.45l43.13 43.13v99.07c-2.86.79-4.98 3.39-4.98 6.5 0 3.74 3.04 6.77 6.77 6.77a6.77 6.77 0 0 0 6.78-6.77c.01-3.11-2.11-5.7-4.96-6.5zm-83.76-322.56V176.36l-43.14-43.14V-36.05h37.91v-311.81h-3.61v308.21h-37.91v174.37l.21.21v380.98h-37.91v174.38l43.12 43.14V855.3c-2.86.8-4.97 3.39-4.97 6.5 0 3.75 3.03 6.79 6.77 6.79 3.74 0 6.78-3.04 6.78-6.79 0-3.11-2.12-5.7-4.98-6.5V731.91L2524 688.78V519.5h37.91V138.51L2573 149.6v380.86h-37.91v152.41l43.15 43.14v99.07c-2.87.8-4.98 3.39-4.98 6.5 0 3.75 3.03 6.79 6.77 6.79 3.73 0 6.77-3.04 6.77-6.79 0-3.11-2.11-5.7-4.97-6.5V724.53l-43.12-43.15V534.07h37.9V153.21l12.8 12.8v381.41h-37.91v129.45l43.13 43.14v99.07c-2.86.8-4.98 3.39-4.98 6.5 0 3.75 3.04 6.77 6.78 6.77s6.77-3.03 6.77-6.77c0-3.11-2.11-5.71-4.98-6.5V718.51l-43.13-43.13V551.03H2593V169.62l8.23 8.23v176.54c-2.86.8-4.98 3.39-4.98 6.51 0 3.74 3.04 6.77 6.78 6.77s6.77-3.03 6.77-6.77c.01-3.11-2.09-5.71-4.95-6.51z"/><path class="st1" d="M2610.96 321.24c0 3.74 3.04 6.78 6.78 6.78s6.77-3.04 6.77-6.78c0-3.11-2.12-5.71-4.98-6.51V168.96l-43.14-43.14V-21.49h37.91v-333.77h-3.61V-25.1h-37.91v152.41l43.13 43.13v144.28c-2.83.81-4.95 3.41-4.95 6.52z"/><path class="st1" d="M2589.21 121.31l43.13 43.14V279.9c-2.86.79-4.98 3.39-4.98 6.5 0 3.74 3.04 6.78 6.77 6.78 3.74 0 6.78-3.04 6.78-6.78 0-3.11-2.12-5.7-4.98-6.5V162.95l-43.13-43.14V-4.52h37.91v-356.74h-3.61V-8.13h-37.91v129.44zm495.72 543.44V541.39l-43.14-43.14V328.97h37.91V17.16h-3.6v308.2h-37.91v241.53c-2.86.79-4.98 3.39-4.98 6.5 0 3.74 3.04 6.77 6.77 6.77 3.74 0 6.78-3.04 6.78-6.77 0-3.12-2.11-5.71-4.98-6.5v-63.56l11.09 11.09v109.25c-2.87.79-4.97 3.39-4.97 6.5 0 3.74 3.03 6.77 6.77 6.77a6.77 6.77 0 0 0 6.78-6.77c0-3.11-2.11-5.71-4.97-6.5V518.03l24.83 24.84v121.88c-2.86.79-4.97 3.38-4.97 6.49a6.77 6.77 0 0 0 6.77 6.78c3.75 0 6.77-3.03 6.77-6.78.01-3.1-2.09-5.69-4.95-6.49z"/><path class="st1" d="M3099.62 634.55V533.99l-43.13-43.14V343.54h37.9V9.77h-3.6v330.17h-37.91v152.41l43.13 43.13v99.07c-2.86.79-4.98 3.39-4.98 6.5 0 3.75 3.04 6.77 6.77 6.77a6.77 6.77 0 0 0 6.78-6.77c.01-3.1-2.11-5.7-4.96-6.5z"/><path class="st1" d="M3116.01 628.54V527.98l-43.13-43.13V360.5h37.91V3.76h-3.61V356.9h-37.91v129.44l43.14 43.14v99.07c-2.87.8-4.98 3.39-4.98 6.51 0 3.74 3.04 6.78 6.78 6.78s6.78-3.04 6.78-6.78c.01-3.12-2.11-5.72-4.98-6.52zm-147.85-307.55h-65.39c-.79-2.86-3.39-4.97-6.51-4.97-3.74 0-6.77 3.03-6.77 6.77a6.77 6.77 0 0 0 6.77 6.78c3.11 0 5.71-2.11 6.51-4.97h69v-62.5l-43.13-43.14V49.69h37.91v-311.81h-3.61v308.2h-37.9v174.38l43.13 43.13v57.4z"/><path class="st1" d="M2943.33 64.27h37.91V-269.5h-3.61V60.66h-37.9v152.41l43.13 43.13v85.68h-53.65c-.8-2.86-3.39-4.97-6.51-4.97-3.75 0-6.77 3.03-6.77 6.77 0 3.74 3.03 6.77 6.77 6.77 3.11 0 5.71-2.12 6.51-4.97h57.27v-90.77l-43.14-43.14V64.27z"/><path class="st1" d="M3002.87 407.84V248.7l-43.13-43.13V81.23h37.9v-356.74h-3.59V77.62h-37.91v129.44l43.13 43.13v157.65c-2.85.79-4.97 3.38-4.97 6.5a6.78 6.78 0 0 0 6.78 6.78 6.77 6.77 0 0 0 6.77-6.78c-.01-3.11-2.12-5.7-4.98-6.5z"/><path class="st1" d="M2977.69 175.39c-2.86.8-4.96 3.39-4.96 6.51 0 3.74 3.02 6.78 6.77 6.78 3.74 0 6.77-3.04 6.77-6.78 0-3.12-2.11-5.71-4.97-6.51v-75.24h37.91v-311.81h-3.6V96.56h-37.91v78.83z"/><path class="st1" d="M2992.38 197.93c-2.86.79-4.97 3.38-4.97 6.5 0 3.75 3.03 6.77 6.77 6.77 3.74 0 6.78-3.03 6.78-6.77 0-3.12-2.11-5.71-4.98-6.5v-83.2h37.91v-333.77h-3.61v330.16h-37.91v86.81z"/><path class="st1" d="M3012.39 214.15v-82.46h37.91v-356.74h-3.6v353.14h-37.91v86.06c-2.86.79-4.98 3.39-4.98 6.51 0 3.74 3.03 6.77 6.77 6.77a6.77 6.77 0 0 0 6.78-6.77c0-3.12-2.11-5.72-4.97-6.51z"/><path class="st1" d="M3067.73 201.29h-21.52v60.62c-2.85.79-4.97 3.39-4.97 6.5 0 3.74 3.04 6.78 6.77 6.78s6.78-3.04 6.78-6.78c0-3.11-2.12-5.71-4.98-6.5V204.9h14.31v99.13h-34.31V176.97h37.91v-304.41h-3.6v300.8h-37.91v134.28h41.51V201.29z"/></g></svg>