<svg xmlns="http://www.w3.org/2000/svg" viewBox="0 0 501.946 501.946"><path d="M485.03 33.832H21.096C9.602 33.832.198 43.236.198 54.73v321.829h501.551V50.55c0-9.404-7.315-16.718-16.719-16.718z" fill="#40596b"/><path d="M.198 376.559v39.706c0 11.494 9.404 20.898 20.898 20.898h459.755c11.494 0 20.898-9.404 20.898-20.898v-39.706H.198z" fill="#f2f2f2"/><g fill="#cdd6e0"><circle cx="250.973" cy="406.861" r="11.494"/><path d="M154.843 437.163h192.261v39.706H154.843z"/></g><path d="M366.957 476.869H134.989c-11.494 0-20.898 9.404-20.898 20.898v4.18H386.81v-4.18c1.045-11.494-8.359-20.898-19.853-20.898z" fill="#f2f2f2"/><path fill="#acb3ba" d="M154.843 437.163h192.261v15.673H154.843z"/><path fill="#fff" d="M33.634 64.134h434.678v282.122H33.634z"/><path d="M340.834 1.44C318.891 63.089 276.05 97.571 231.12 134.142l56.424 110.759c56.424-14.629 109.714-29.257 171.363-10.449L340.834 1.44z" fill="#f2f2f2"/><path d="M377.406 77.718l36.571 72.098c19.853-10.449 28.212-34.482 17.763-54.335s-34.481-27.167-54.334-17.763z" fill="#ff7058"/><path fill="#40596b" d="M280.23 248.036l30.302 60.604-37.616 19.853-39.706-47.02-5.225-6.27z"/><path d="M231.12 134.142l-59.559 30.302a20.94 20.94 0 0 0-9.404 28.212l37.616 73.143a20.94 20.94 0 0 0 28.212 9.404l59.559-30.302-56.424-110.759z" fill="#acb3ba"/><path d="M161.112 190.567l-3.135 1.045c-7.314 4.18-10.449 13.584-7.314 20.898l25.078 49.11c4.18 7.314 13.584 10.449 20.898 7.314l3.135-1.045-38.662-77.322z" fill="#ff7058"/><path fill="#334a5e" d="M280.23 248.036l4.18 7.314-51.2 26.123-5.225-6.27z"/><path d="M464.132 216.689L357.553 6.665c-3.135-6.269-10.449-8.359-16.718-5.224s-8.359 10.449-5.224 16.718l106.58 210.025c3.135 6.269 10.449 8.359 16.718 5.224 6.268-3.135 8.358-10.449 5.223-16.719z" fill="#acb3ba"/><path d="M194.549.395H71.251c-11.494 0-21.943 9.404-21.943 21.943v67.918c0 11.494 9.404 21.943 21.943 21.943h86.727l33.437 33.437v-33.437h3.135c11.494 0 21.943-9.404 21.943-21.943V22.338C216.492 9.799 206.043.395 194.549.395z" fill="#ffd15c"/><g fill="#ff7058"><circle cx="183.055" cy="55.775" r="15.673"/><circle cx="132.9" cy="55.775" r="15.673"/><circle cx="82.745" cy="55.775" r="15.673"/></g></svg>