<svg height="512pt" viewBox="0 0 512 512.002" width="512pt" xmlns="http://www.w3.org/2000/svg"><path d="m495.71875 203.238281h-34.117188c-3.472656 0-6.523437-2.289062-7.503906-5.621093-4.167968-14.152344-9.824218-27.660157-16.765625-40.371094-1.667969-3.050782-1.128906-6.832032 1.328125-9.289063l24.152344-24.152343c6.363281-6.359376 6.363281-16.671876 0-23.03125l-51.585938-51.585938c-6.359374-6.363281-16.671874-6.363281-23.03125 0l-24.152343 24.152344c-2.460938 2.457031-6.242188 2.996094-9.292969 1.328125-12.707031-6.941407-26.214844-12.597657-40.367188-16.765625-3.332031-.980469-5.617187-4.03125-5.617187-7.503906v-34.113282c-.003906-8.996094-7.292969-16.285156-16.285156-16.285156h-72.960938c-8.992187 0-16.28125 7.289062-16.28125 16.285156v34.113282c0 3.472656-2.289062 6.523437-5.621093 7.503906-14.152344 4.167968-27.660157 9.824218-40.367188 16.765625-3.054688 1.667969-6.832031 1.128906-9.292969-1.328125l-24.152343-24.152344c-6.359376-6.359375-16.667969-6.359375-23.027344 0l-51.589844 51.585938c-6.359375 6.363281-6.359375 16.671874 0 23.03125l24.152344 24.152343c2.457031 2.460938 2.996094 6.238281 1.328125 9.292969-6.941407 12.707031-12.597657 26.214844-16.765625 40.367188-.980469 3.332031-4.03125 5.621093-7.503906 5.621093h-34.113282c-8.992187 0-16.285156 7.289063-16.285156 16.28125v72.960938c0 8.992187 7.292969 16.28125 16.285156 16.28125h34.113282c3.472656 0 6.523437 2.289062 7.503906 5.621093 4.167968 14.152344 9.824218 27.660157 16.765625 40.367188 1.667969 3.050781 1.128906 6.832031-1.328125 9.292969l-24.152344 24.152343c-6.363281 6.359376-6.363281 16.667969 0 23.03125l51.585938 51.585938c6.363281 6.363281 16.671874 6.363281 23.03125 0l24.152343-24.152344c2.457031-2.460937 6.238281-2.996094 9.289063-1.328125 12.710937 6.941407 26.21875 12.597657 40.371094 16.765625 3.332031.980469 5.621093 4.03125 5.621093 7.503906v34.113282c0 8.996094 7.289063 16.289062 16.285157 16.289062h72.953124c8.996094 0 16.285157-7.292968 16.285157-16.289062v-34.113282c0-3.472656 2.289062-6.523437 5.621093-7.503906 14.148438-4.167968 27.65625-9.824218 40.367188-16.765625 3.050781-1.667969 6.832031-1.128906 9.289062 1.328125l24.15625 24.152344c6.359376 6.359375 16.667969 6.359375 23.027344 0l51.589844-51.585938c6.359375-6.363281 6.359375-16.671874 0-23.03125l-24.152344-24.15625c-2.460937-2.457031-2.996094-6.238281-1.328125-9.289062 6.941407-12.707031 12.59375-26.21875 16.765625-40.367188.980469-3.332031 4.03125-5.621093 7.503906-5.621093h34.113282c8.996094 0 16.285156-7.289063 16.285156-16.28125v-72.960938c0-8.992187-7.289062-16.28125-16.28125-16.28125zm-239.71875 180.453125c-70.523438 0-127.691406-57.167968-127.691406-127.691406s57.167968-127.691406 127.691406-127.691406 127.691406 57.167968 127.691406 127.691406-57.167968 127.691406-127.691406 127.691406zm0 0" fill="#54a0ff"/><g fill="#338def"><path d="m73.339844 147.957031c2.457031 2.460938 2.996094 6.238281 1.328125 9.292969-6.941407 12.707031-12.597657 26.214844-16.765625 40.367188-.980469 3.332031-4.03125 5.621093-7.503906 5.621093h30.90625c3.472656 0 6.527343-2.289062 7.503906-5.621093 4.167968-14.152344 9.824218-27.660157 16.765625-40.367188 1.667969-3.050781 1.128906-6.832031-1.328125-9.292969l-24.152344-24.152343c-6.363281-6.359376-6.363281-16.667969 0-23.03125l47.648438-47.648438-3.9375-3.9375c-6.359376-6.363281-16.667969-6.363281-23.03125-.003906l-51.585938 51.589844c-6.363281 6.359374-6.363281 16.671874 0 23.03125zm0 0"/><path d="m30.90625 292.480469v-72.960938c0-8.992187 7.292969-16.28125 16.285156-16.28125h-30.90625c-8.992187 0-16.285156 7.289063-16.285156 16.28125v72.960938c0 8.992187 7.292969 16.28125 16.285156 16.28125h30.90625c-8.992187 0-16.285156-7.289063-16.285156-16.28125zm0 0"/><path d="m80.09375 411.226562c-6.359375-6.363281-6.359375-16.671874 0-23.03125l24.152344-24.15625c2.460937-2.457031 2.996094-6.238281 1.332031-9.289062-6.941406-12.707031-12.597656-26.21875-16.765625-40.367188-.980469-3.332031-4.035156-5.621093-7.507812-5.621093h-30.90625c3.472656 0 6.523437 2.289062 7.503906 5.621093 4.167968 14.148438 9.824218 27.660157 16.765625 40.367188 1.667969 3.050781 1.128906 6.832031-1.328125 9.289062l-24.152344 24.15625c-6.363281 6.359376-6.363281 16.667969 0 23.03125l51.585938 51.585938c6.363281 6.359375 16.671874 6.359375 23.03125 0l3.9375-3.941406zm0 0"/></g><path d="m333.621094 248.839844-32.609375-56.480469c-2.558594-4.429687-7.285157-7.160156-12.402344-7.160156h-65.21875c-5.113281 0-9.84375 2.730469-12.398437 7.160156l-32.613282 56.480469c-2.554687 4.429687-2.554687 9.890625 0 14.320312l32.613282 56.480469c2.554687 4.429687 7.285156 7.160156 12.398437 7.160156h65.21875c5.117187 0 9.84375-2.730469 12.402344-7.160156l32.609375-56.480469c2.558594-4.429687 2.558594-9.890625 0-14.320312zm-77.621094 39.070312c-17.621094 0-31.90625-14.289062-31.90625-31.910156 0-17.625 14.285156-31.910156 31.90625-31.910156 17.625 0 31.910156 14.285156 31.910156 31.910156 0 17.621094-14.285156 31.910156-31.910156 31.910156zm0 0" fill="#e4eaf8"/><path d="m241.898438 319.640625-32.609376-56.480469c-2.558593-4.429687-2.558593-9.886718 0-14.320312l32.609376-56.480469c2.558593-4.429687 7.285156-7.160156 12.398437-7.160156h-30.90625c-5.113281 0-9.84375 2.730469-12.398437 7.160156l-32.613282 56.480469c-2.554687 4.433594-2.554687 9.890625 0 14.320312l32.613282 56.480469c2.554687 4.429687 7.285156 7.160156 12.398437 7.160156h30.90625c-5.113281 0-9.839844-2.730469-12.398437-7.160156zm0 0" fill="#c7d2e5"/><path d="m219.519531 0c-8.992187 0-16.28125 7.289062-16.28125 16.285156v34.113282c0 3.398437-2.199219 6.382812-5.417969 7.425781 1.742188-.664063 14.859376-5.546875 28.816407-7.011719 4.261719-.445312 7.507812-4.015625 7.507812-8.296875v-26.230469c0-8.996094 7.289063-16.285156 16.285157-16.285156zm0 0" fill="#338def"/><path d="m234.144531 495.714844v-24.984375c0-4.929688-3.769531-9.078125-8.683593-9.480469-12.914063-1.054688-21.585938-4.253906-25.484376-5.992188 2 1.4375 3.261719 3.773438 3.261719 6.34375v34.113282c0 8.992187 7.289063 16.285156 16.285157 16.285156h30.90625c-8.996094 0-16.285157-7.289062-16.285157-16.285156zm0 0" fill="#338def"/></svg>