<svg height="512pt" viewBox="0 0 512 512.002" width="512pt" xmlns="http://www.w3.org/2000/svg"><path d="M495.719 203.238h-34.117a7.822 7.822 0 0 1-7.504-5.62 205.119 205.119 0 0 0-16.766-40.372 7.824 7.824 0 0 1 1.328-9.289l24.153-24.152c6.363-6.36 6.363-16.672 0-23.032l-51.586-51.585c-6.36-6.364-16.672-6.364-23.032 0L364.043 73.34a7.83 7.83 0 0 1-9.293 1.328 204.986 204.986 0 0 0-40.367-16.766 7.819 7.819 0 0 1-5.617-7.504V16.285C308.762 7.29 301.473 0 292.48 0h-72.96c-8.993 0-16.282 7.29-16.282 16.285v34.113a7.822 7.822 0 0 1-5.62 7.504 204.986 204.986 0 0 0-40.368 16.766 7.83 7.83 0 0 1-9.293-1.328l-24.152-24.153c-6.36-6.359-16.668-6.359-23.028 0l-51.59 51.586c-6.359 6.364-6.359 16.672 0 23.032l24.153 24.152a7.83 7.83 0 0 1 1.328 9.293 204.986 204.986 0 0 0-16.766 40.367 7.822 7.822 0 0 1-7.504 5.621H16.285C7.293 203.238 0 210.528 0 219.52v72.96c0 8.993 7.293 16.282 16.285 16.282h34.113a7.822 7.822 0 0 1 7.504 5.62 204.986 204.986 0 0 0 16.766 40.368 7.83 7.83 0 0 1-1.328 9.293l-24.153 24.152c-6.363 6.36-6.363 16.668 0 23.032l51.586 51.585c6.364 6.364 16.672 6.364 23.032 0l24.152-24.152a7.818 7.818 0 0 1 9.29-1.328 205.119 205.119 0 0 0 40.37 16.766 7.822 7.822 0 0 1 5.621 7.504v34.113c0 8.996 7.29 16.289 16.285 16.289h72.954c8.996 0 16.285-7.293 16.285-16.29v-34.112a7.822 7.822 0 0 1 5.62-7.504 205.183 205.183 0 0 0 40.368-16.766 7.824 7.824 0 0 1 9.29 1.328l24.155 24.152c6.36 6.36 16.668 6.36 23.028 0l51.59-51.585c6.359-6.364 6.359-16.672 0-23.032L438.66 364.04a7.818 7.818 0 0 1-1.328-9.289 205.321 205.321 0 0 0 16.766-40.367 7.822 7.822 0 0 1 7.504-5.621h34.113c8.996 0 16.285-7.29 16.285-16.282v-72.96c0-8.993-7.29-16.282-16.281-16.282zM256 383.691c-70.523 0-127.691-57.168-127.691-127.691S185.477 128.309 256 128.309 383.691 185.477 383.691 256 326.523 383.691 256 383.691zm0 0" fill="#54a0ff"/><path d="M73.34 147.957a7.83 7.83 0 0 1 1.328 9.293 204.986 204.986 0 0 0-16.766 40.367 7.822 7.822 0 0 1-7.504 5.621h30.907a7.819 7.819 0 0 0 7.504-5.62 204.986 204.986 0 0 1 16.765-40.368 7.83 7.83 0 0 0-1.328-9.293l-24.152-24.152c-6.364-6.36-6.364-16.668 0-23.032l47.648-47.648-3.937-3.938c-6.36-6.363-16.668-6.363-23.032-.003l-51.585 51.59c-6.364 6.359-6.364 16.671 0 23.03zM30.906 292.48v-72.96c0-8.993 7.293-16.282 16.285-16.282H16.285C7.293 203.238 0 210.528 0 219.52v72.96c0 8.993 7.293 16.282 16.285 16.282h30.906c-8.992 0-16.285-7.29-16.285-16.282zm49.188 118.747c-6.36-6.364-6.36-16.672 0-23.032l24.152-24.156a7.825 7.825 0 0 0 1.332-9.289 205.085 205.085 0 0 1-16.766-40.367 7.827 7.827 0 0 0-7.507-5.621H50.398a7.822 7.822 0 0 1 7.504 5.62 205.085 205.085 0 0 0 16.766 40.368 7.824 7.824 0 0 1-1.328 9.29l-24.153 24.155c-6.363 6.36-6.363 16.668 0 23.032l51.586 51.586c6.364 6.359 16.672 6.359 23.032 0l3.937-3.942zm0 0" fill="#338def"/><path d="M333.621 248.84l-32.61-56.48a14.323 14.323 0 0 0-12.402-7.16h-65.218c-5.114 0-9.844 2.73-12.399 7.16l-32.613 56.48a14.337 14.337 0 0 0 0 14.32l32.613 56.48a14.316 14.316 0 0 0 12.399 7.16h65.218c5.118 0 9.844-2.73 12.403-7.16l32.61-56.48a14.318 14.318 0 0 0 0-14.32zM256 287.91c-17.621 0-31.906-14.289-31.906-31.91 0-17.625 14.285-31.91 31.906-31.91 17.625 0 31.91 14.285 31.91 31.91 0 17.621-14.285 31.91-31.91 31.91zm0 0" fill="#e4eaf8"/><path d="M241.898 319.64l-32.609-56.48a14.318 14.318 0 0 1 0-14.32l32.61-56.48a14.321 14.321 0 0 1 12.398-7.16H223.39c-5.114 0-9.844 2.73-12.399 7.16l-32.613 56.48a14.337 14.337 0 0 0 0 14.32l32.613 56.48a14.316 14.316 0 0 0 12.399 7.16h30.906c-5.113 0-9.84-2.73-12.399-7.16zm0 0" fill="#c7d2e5"/><path d="M219.52 0c-8.993 0-16.282 7.29-16.282 16.285v34.113a7.81 7.81 0 0 1-5.418 7.426c1.743-.664 14.86-5.547 28.817-7.011 4.261-.446 7.508-4.016 7.508-8.297v-26.23C234.145 7.288 241.434 0 250.43 0zm14.625 495.715V470.73c0-4.93-3.77-9.078-8.684-9.48-12.914-1.055-21.586-4.254-25.484-5.992a7.815 7.815 0 0 1 3.261 6.344v34.113c0 8.992 7.29 16.285 16.285 16.285h30.907c-8.996 0-16.285-7.29-16.285-16.285zm0 0" fill="#338def"/></svg>