<svg xmlns="http://www.w3.org/2000/svg" viewBox="0 0 512.001 512.001" width="512" height="512"><path d="M498.757 74.817h-62.081L365.922 4.062c-5.416-5.417-14.197-5.417-19.613 0l-70.754 70.753h-62.082c-7.111 0-12.874 5.764-12.874 12.874v96.609l14.322-8.892c10.252-6.365 22.669-7.179 33.407-2.796l47.98-37.832c7.218-5.692 17.683-4.452 23.372 2.764 5.691 7.217 4.453 17.682-2.764 23.372l-46.771 36.879c3.782 15.127-2.369 31.596-16.326 40.262l-27.472 17.057L200.6 271.1v28.015c0 7.111 5.764 12.874 12.874 12.874h285.283c7.111 0 12.874-5.764 12.874-12.874V87.691c0-7.11-5.764-12.874-12.874-12.874zm-183.976 0l41.335-41.335 41.335 41.335h-82.67z" fill="#FFF"/><path d="M250.033 197.008c-5.371-8.651-16.738-11.309-25.387-5.938l-37.337 23.182-.173-34.473c-.12-23.935-19.692-43.408-43.628-43.408H125.37l-19.723 51.152 36.901 16.939v-24.537a3.859 3.859 0 1 1 7.718 0v.04l.407 68.862c1.149 13.809 16.49 21.334 28.091 14.13l65.333-40.565c8.649-5.368 11.307-16.733 5.936-25.384zM44.898 288.234l.009 201.644c0 12.219 9.904 22.123 22.123 22.123 12.219 0 22.123-9.904 22.123-22.123V313.047h8.403c-1.772-.583-52.658-24.813-52.658-24.813zm97.65-23.086l-16.221 35.333c-4.764 10.377-16.5 15.956-27.624 12.914v176.482c0 12.219 9.904 22.123 22.123 22.123 12.219 0 22.123-9.904 22.123-22.123-.02-11.15-.401-212.437-.401-224.729zm-36.086-98.78l-7.496-13.632 6.65-12.096c.991-1.803-.315-4.016-2.375-4.016H84.97c-2.057 0-3.367 2.211-2.375 4.016l6.665 12.12-7.509 13.657a7.693 7.693 0 0 0-.804 5.203l2.628 13.236c7.868-2.859 13.773-1.141 20.462 1.929l3.21-15.117a7.694 7.694 0 0 0-.785-5.3z" fill="#FFF"/><path d="M138.113 218.299l-42.707-19.606a9.154 9.154 0 0 0-12.138 4.5L72.22 227.261l22.494 12.497c16.069 8.928 21.858 29.191 12.93 45.26a33.11 33.11 0 0 1-11.133 11.846l4.573 2.099a9.154 9.154 0 0 0 12.138-4.5l29.391-64.027a9.153 9.153 0 0 0-4.5-12.137z" fill="#FFF"/><circle cx="93.928" cy="85.985" r="38.208" fill="#FFF"/><path d="M87.502 252.737l-50.195-27.888.276-44.884v-.002a3.657 3.657 0 1 1 7.315.021v32.096l14.677 8.155 10.586-23.059c2.399-5.227 6.595-9.294 11.651-11.606l-18.97-49.198H44.34c-23.937 0-43.507 19.474-43.627 43.387l-.344 55.786a18.434 18.434 0 0 0 9.482 16.229l59.744 33.193c8.899 4.946 20.124 1.74 25.069-7.161 4.944-8.899 1.738-20.124-7.162-25.069z" fill="#FFF"/></svg>