<?xml version="1.0" encoding="utf-8"?>
<!-- Generator: Adobe Illustrator 23.0.1, SVG Export Plug-In . SVG Version: 6.00 Build 0)  -->
<svg version="1.1" id="Capa_1" xmlns="http://www.w3.org/2000/svg" xmlns:xlink="http://www.w3.org/1999/xlink" x="0px" y="0px"
	 viewBox="0 0 61 81" style="enable-background:new 0 0 61 81;" xml:space="preserve">
<style type="text/css">
	.st0{fill:#063169;}
</style>
<g>
	<g>
		<g>
			<path class="st0" d="M38.8,34.6c-0.6-1.3-2-1.9-3.3-1.3L11.7,43.7c-1.3,0.6-1.9,2-1.3,3.3c0.6,1.3,2,1.9,3.3,1.3l23.8-10.4
				C38.8,37.4,39.4,35.9,38.8,34.6z"/>
			<path class="st0" d="M15.8,52.9c-1.3,0.6-1.9,2-1.3,3.3c0.6,1.3,2,1.9,3.3,1.3l14.4-6.3c1.3-0.6,1.9-2,1.3-3.3s-2-1.9-3.3-1.3
				L15.8,52.9z"/>
			<path class="st0" d="M30.9,72.7l-7.7,3.4c-2.5,1.1-5.5-0.1-6.6-2.6L-1.2,32.9c-1.1-2.5,0.1-5.5,2.6-6.6l28.4-12.4
				c2.5-1.1,5.5,0.1,6.6,2.6l6.2,14.2c0.6,1.3,2,1.9,3.3,1.3s1.9-2,1.3-3.3L41,14.4C38.8,9.3,32.8,7,27.7,9.2L-0.6,21.6
				c-5.1,2.2-7.4,8.2-5.2,13.3l17.8,40.6c2.2,5.1,8.2,7.4,13.3,5.2l7.7-3.4c1.3-0.6,1.9-2,1.3-3.3C33.6,72.7,32.2,72.2,30.9,72.7z"
				/>
			<path class="st0" d="M55.7,36.8c-3.9-1.5-8.3,0.4-9.8,4.3l-7.1,18.2c-0.2,0.4-0.2,0.8-0.2,1.2l1.2,10.3c0.1,0.9,0.7,1.7,1.6,2
				c0.6,0.3,1.3,0.2,2,0c0.2-0.1,0.4-0.2,0.6-0.4l8.2-6.7c0.3-0.3,0.6-0.6,0.8-1l7.1-18.1C61.5,42.7,59.5,38.3,55.7,36.8z
				 M48.4,62.3l-4.1,3.3l-0.6-5.1l4.8-12.3l4.7,1.8L48.4,62.3z M55.2,44.8L55,45.4l-4.7-1.8l0.3-0.6c0.5-1.3,2-1.9,3.3-1.4
				C55.1,42,55.8,43.5,55.2,44.8z"/>
			<path class="st0" d="M31.5,24.1L7.7,34.5c-1.3,0.6-1.9,2-1.3,3.3c0.6,1.3,2,1.9,3.3,1.3l23.8-10.4c1.3-0.6,1.9-2,1.3-3.3
				S32.8,23.5,31.5,24.1z"/>
		</g>
	</g>
</g>
</svg>
