<svg xmlns="http://www.w3.org/2000/svg" viewBox="0 0 480.006 480.006" width="512" height="512"><path fill="#3370c0" d="M40.003 48.006h104v16h-104zm0 32h104v16h-104zm0 32h72v16h-72zm0 32h72v16h-72zm-40 320h480v16h-480zM463.163 68.43l-32-64a8 8 0 0 0-10.73-3.587l-.006.003-64 32a8.004 8.004 0 0 0 7.152 14.32l46.352-23.16-12.648 36.112C341.69 218.446 198.501 329.522 31.323 344.006l1.36 16C206.16 344.978 354.737 229.701 412.395 65.398l12.912-36.896 23.536 47.08a8.004 8.004 0 0 0 14.32-7.152zM96.003 384.006h-56a8 8 0 0 0-8 8v48a8 8 0 0 0 8 8h56a8 8 0 0 0 8-8v-48a8 8 0 0 0-8-8zm-8 48h-40v-32h40v32zm96-72h-56a8 8 0 0 0-8 8v72a8 8 0 0 0 8 8h56a8 8 0 0 0 8-8v-72a8 8 0 0 0-8-8zm-8 72h-40v-56h40v56zm96-112h-56a8 8 0 0 0-8 8v112a8 8 0 0 0 8 8h56a8 8 0 0 0 8-8v-112a8 8 0 0 0-8-8zm-8 112h-40v-96h40v96z"/><path d="M360.003 264.006h-56a8 8 0 0 0-8 8v168a8 8 0 0 0 8 8h56a8 8 0 0 0 8-8v-168a8 8 0 0 0-8-8zm-8 168h-40v-152h40v152zm96-280h-56a8 8 0 0 0-8 8v280a8 8 0 0 0 8 8h56a8 8 0 0 0 8-8v-280a8 8 0 0 0-8-8zm-8 280h-40v-264h40v264z" fill="#3370c0"/></svg>