<?xml version="1.0" encoding="utf-8"?>
<!-- Generator: Adobe Illustrator 23.0.0, SVG Export Plug-In . SVG Version: 6.00 Build 0)  -->
<svg version="1.1" id="Layer_1" xmlns="http://www.w3.org/2000/svg" xmlns:xlink="http://www.w3.org/1999/xlink" x="0px" y="0px"
	 viewBox="0 0 2451 1276" style="enable-background:new 0 0 2451 1276;" xml:space="preserve">
<style type="text/css">
	.Drop_x0020_Shadow{fill:none;}
	.Outer_x0020_Glow_x0020_5_x0020_pt{fill:none;}
	.Blue_x0020_Neon{fill:none;stroke:#8AACDA;stroke-width:7;stroke-linecap:round;stroke-linejoin:round;}
	.Chrome_x0020_Highlight{fill:url(#SVGID_1_);stroke:#FFFFFF;stroke-width:0.3629;stroke-miterlimit:1;}
	.Jive_GS{fill:#FFDD00;}
	.Alyssa_GS{fill:#A6D0E4;}
	.st0{opacity:0.55;}
	.st1{fill:#173B56;}
</style>
<linearGradient id="SVGID_1_" gradientUnits="userSpaceOnUse" x1="0" y1="0" x2="6.123234e-17" y2="-1">
	<stop  offset="0" style="stop-color:#656565"/>
	<stop  offset="0.618" style="stop-color:#1B1B1B"/>
	<stop  offset="0.6292" style="stop-color:#545454"/>
	<stop  offset="0.9831" style="stop-color:#3E3E3E"/>
</linearGradient>
<g class="st0">
	<path class="st1" d="M-241.66,824.27l-43.13-43.13V611.86h37.91V300.05h-3.6v308.21h-37.91v174.37l43.13,43.13v57.4h-32.19
		c-0.8-2.86-3.39-4.98-6.5-4.98c-3.74,0-6.78,3.04-6.78,6.78c0,3.73,3.04,6.77,6.78,6.77c3.11,0,5.71-2.12,6.5-4.98h35.79V824.27z"
		/>
	<path class="st1" d="M-270.1,626.43h37.91V292.66h-3.6v330.16h-37.91v152.42l43.13,43.14v85.68h-20.45
		c-0.79-2.86-3.39-4.97-6.51-4.97c-3.74,0-6.78,3.03-6.78,6.77c0,3.74,3.04,6.78,6.78,6.78c3.11,0,5.71-2.11,6.5-4.97h24.06v-90.78
		l-43.13-43.13V626.43z"/>
	<path class="st1" d="M-210.57,925.5V810.87l-43.14-43.14V643.39h37.91V286.65h-3.6v353.14h-37.91v129.45l43.13,43.13V925.5
		c-2.86,0.8-4.97,3.4-4.97,6.51c0,3.73,3.04,6.77,6.78,6.77c3.75,0,6.77-3.04,6.77-6.77C-205.6,928.91-207.71,926.3-210.57,925.5z"
		/>
	<path class="st1" d="M-235.74,737.57c-2.86,0.8-4.97,3.39-4.97,6.5c0,3.74,3.03,6.78,6.77,6.78c3.74,0,6.78-3.04,6.78-6.78
		c0-3.11-2.11-5.71-4.97-6.5v-75.24h37.91V350.52h-3.6v308.21h-37.91V737.57z"/>
	<path class="st1" d="M-221.04,760.1c-2.86,0.79-4.98,3.39-4.98,6.51c0,3.74,3.04,6.77,6.78,6.77c3.74,0,6.77-3.03,6.77-6.77
		c0-3.12-2.11-5.71-4.97-6.51v-83.2h37.91V343.12h-3.6v330.17h-37.91V760.1z"/>
	<path class="st1" d="M-201.04,776.32v-82.46h37.91V337.12h-3.61v353.13h-37.91v86.06c-2.86,0.8-4.98,3.39-4.98,6.51
		c0,3.74,3.04,6.77,6.78,6.77c3.74,0,6.77-3.03,6.77-6.77C-196.07,779.7-198.18,777.11-201.04,776.32z"/>
	<path class="st1" d="M-149.31,735.53h-37.91v134.28h41.52V763.46h-21.51v60.62c-2.86,0.78-4.98,3.39-4.98,6.51
		c0,3.73,3.03,6.76,6.78,6.76c3.74,0,6.77-3.03,6.77-6.76c0-3.13-2.11-5.71-4.97-6.51v-57.01h14.3v99.13h-34.3V739.13h37.91v-304.4
		h-3.61V735.53z"/>
	<path class="st1" d="M-410.28,1022.94V844.9l-43.14-43.13V632.5h37.91V320.68h-3.6v308.2h-37.91v174.38l43.14,43.14v176.54
		c-2.86,0.79-4.98,3.39-4.98,6.51c0,3.74,3.04,6.77,6.78,6.77c3.74,0,6.78-3.03,6.78-6.77
		C-405.31,1026.32-407.42,1023.74-410.28,1022.94z"/>
	<path class="st1" d="M-395.59,983.29V837.51l-43.13-43.13V647.06h37.91V313.29h-3.6v330.16h-37.91v152.41l43.13,43.14v144.28
		c-2.86,0.8-4.98,3.39-4.98,6.51c0,3.75,3.04,6.77,6.78,6.77s6.77-3.03,6.77-6.77C-390.62,986.67-392.73,984.08-395.59,983.29z"/>
	<path class="st1" d="M-379.19,948.44V831.51l-43.13-43.14V664.02h37.91V307.28h-3.6v353.13h-37.91v129.44l43.13,43.13v115.46
		c-2.86,0.79-4.97,3.39-4.97,6.5c0,3.74,3.03,6.78,6.77,6.78c3.74,0,6.78-3.04,6.78-6.78
		C-374.21,951.83-376.33,949.24-379.19,948.44z"/>
	<path class="st1" d="M154.83,1078.09V954.72l-43.14-43.13V669.02H4.54V216.93h-3.6v455.69h107.14v240.46l43.14,43.14v121.87
		c-2.86,0.8-4.98,3.39-4.98,6.5c0,3.74,3.04,6.77,6.78,6.77c3.74,0,6.77-3.03,6.77-6.77
		C159.8,1081.48,157.69,1078.88,154.83,1078.09z"/>
	<path class="st1" d="M531.72,1198.22v-130.18l-43.13-43.14V860.53h32.92V626.32l-34.92-32.44V493.86h38.25V330.51
		c2.86-0.79,4.97-3.39,4.97-6.5c0-3.75-3.03-6.78-6.77-6.78c-3.73,0-6.77,3.03-6.77,6.78c0,3.11,2.12,5.7,4.97,6.5v159.74h-38.25
		v105.2l34.92,32.45v229.04h-32.92v169.46l43.13,43.14v128.63c-2.91,0.76-5.07,3.37-5.07,6.53c0,3.75,3.04,6.78,6.77,6.78
		c3.75,0,6.79-3.03,6.79-6.78C536.6,1201.6,534.53,1199.04,531.72,1198.22z"/>
	<path class="st1" d="M546.43,1175.15v-107.47l-43.15-43.14v-147.3h37.91V617.08l-37.91-38.3v-67.3h37.98V271.07
		c2.85-0.8,4.97-3.39,4.97-6.51c0-3.74-3.04-6.77-6.77-6.77c-3.74,0-6.78,3.04-6.78,6.77c0,3.12,2.11,5.71,4.97,6.51v236.8h-37.97
		v72.39l37.91,38.3v255.07h-37.91v152.41l43.14,43.14v105.74c-3.06,0.65-5.36,3.36-5.36,6.62c0,3.73,3.03,6.76,6.77,6.76
		c3.73,0,6.78-3.03,6.78-6.76C551.01,1178.57,549.08,1176.08,546.43,1175.15z"/>
	<path class="st1" d="M169.51,1047.9V947.34l-43.13-43.14v-251.7H19.24V216.93h-3.61V656.1h107.15v249.59l43.14,43.14v99.07
		c-2.86,0.78-4.97,3.39-4.97,6.51c0,3.73,3.03,6.77,6.77,6.77c3.75,0,6.77-3.04,6.77-6.77
		C174.49,1051.28,172.38,1048.68,169.51,1047.9z"/>
	<path class="st1" d="M190.98,930.01V806.64l-43.14-43.14V594.23h37.91V282.42h-3.6v308.2h-37.91v174.37l43.13,43.14v121.88
		c-2.86,0.79-4.97,3.38-4.97,6.5c0,3.75,3.04,6.77,6.77,6.77c3.75,0,6.78-3.03,6.78-6.77C195.95,933.39,193.84,930.81,190.98,930.01
		z"/>
	<path class="st1" d="M205.67,899.81V799.25l-43.13-43.14V608.79h37.91V275.03h-3.61v330.16h-37.91V757.6l43.14,43.14v99.07
		c-2.86,0.79-4.97,3.39-4.97,6.51c0,3.74,3.03,6.77,6.77,6.77c3.74,0,6.78-3.03,6.78-6.77C210.64,903.2,208.53,900.6,205.67,899.81z
		"/>
	<path class="st1" d="M222.07,893.81V793.24l-43.13-43.13V625.76h37.91V269.02h-3.61v353.14h-37.91v129.44l43.14,43.13v99.08
		c-2.86,0.78-4.98,3.39-4.98,6.5c0,3.74,3.04,6.77,6.78,6.77c3.74,0,6.77-3.03,6.77-6.77C227.04,897.19,224.93,894.6,222.07,893.81z
		"/>
	<path class="st1" d="M35.52,594.83c3.11,0,5.71-2.11,6.5-4.97h35.8v-62.49l-43.14-43.14V314.95h37.91V3.14h-3.6v308.21H31.08
		v174.37l43.13,43.14v57.39H42.02c-0.79-2.86-3.38-4.97-6.5-4.97c-3.74,0-6.78,3.03-6.78,6.77
		C28.74,591.79,31.78,594.83,35.52,594.83z"/>
	<path class="st1" d="M45.77,478.33l43.14,43.13v85.68H68.46c-0.79-2.86-3.39-4.97-6.51-4.97c-3.74,0-6.78,3.03-6.78,6.77
		c0,3.74,3.04,6.78,6.78,6.78c3.11,0,5.71-2.11,6.51-4.97h24.06v-90.77l-43.13-43.13V329.52h37.91V-4.25h-3.6v330.17H45.77V478.33z"
		/>
	<path class="st1" d="M62.18,472.31l43.13,43.14V628.6c-2.86,0.79-4.98,3.39-4.98,6.5c0,3.75,3.04,6.78,6.78,6.78
		c3.75,0,6.78-3.03,6.78-6.78c0-3.12-2.11-5.7-4.97-6.5V513.96l-43.14-43.13V346.48h37.91V-10.26h-3.6v353.14H62.18V472.31z"/>
	<path class="st1" d="M83.74,440.65c-2.86,0.8-4.97,3.39-4.97,6.5c0,3.74,3.03,6.78,6.78,6.78c3.74,0,6.77-3.04,6.77-6.78
		c0-3.11-2.11-5.71-4.97-6.5v-75.24h37.91V53.6h-3.61v308.21H83.74V440.65z"/>
	<path class="st1" d="M98.44,463.18c-2.86,0.79-4.97,3.38-4.97,6.5c0,3.74,3.04,6.78,6.77,6.78c3.74,0,6.78-3.04,6.78-6.78
		c0-3.12-2.11-5.71-4.97-6.5v-83.2h37.91V46.22h-3.6v330.16H98.44V463.18z"/>
	<path class="st1" d="M114.83,479.4c-2.86,0.8-4.97,3.39-4.97,6.51c0,3.74,3.04,6.77,6.78,6.77c3.74,0,6.78-3.03,6.78-6.77
		c0-3.12-2.12-5.71-4.98-6.51v-82.46h37.92V40.2h-3.61v353.14h-37.91V479.4z"/>
	<path class="st1" d="M132.27,572.89h41.51V466.55h-21.51v60.62c-2.86,0.79-4.98,3.38-4.98,6.5c0,3.74,3.04,6.77,6.77,6.77
		c3.74,0,6.78-3.03,6.78-6.77c0-3.11-2.11-5.7-4.97-6.5v-57.02h14.3v99.13h-34.3V442.22h37.91v-304.4h-3.61v300.8h-37.91V572.89z"/>
	<path class="st1" d="M-79.28,753.73h32.92V519.52l-34.92-32.45V387.05h38.25V223.7c2.86-0.8,4.97-3.39,4.97-6.51
		c0-3.74-3.03-6.77-6.77-6.77c-3.74,0-6.77,3.03-6.77,6.77c0,3.12,2.11,5.71,4.97,6.51v159.75h-38.25v105.19l34.92,32.44v229.04
		h-32.92v169.47l43.13,43.13v135.16h3.61V961.23l-43.13-43.13V753.73z"/>
	<path class="st1" d="M-64.58,770.42h37.91V510.27l-37.91-38.29v-67.3h37.97V164.26c2.86-0.8,4.97-3.39,4.97-6.5
		c0-3.74-3.04-6.78-6.78-6.78c-3.74,0-6.77,3.03-6.77,6.78c0,3.12,2.11,5.71,4.97,6.5v236.8h-37.97v72.38l37.91,38.3v255.07h-37.91
		v152.41l43.13,43.14v112.35h3.6V960.87l-43.13-43.13V770.42z"/>
	<path class="st1" d="M-7.04,1048.59V948.02l-43.13-43.13V780.55h37.91V216.93h-3.6v560.01h-37.91v129.44l43.13,43.14v99.07
		c-2.86,0.8-4.97,3.39-4.97,6.51c0,3.74,3.03,6.77,6.77,6.77c3.75,0,6.78-3.03,6.78-6.77C-2.07,1051.97-4.18,1049.38-7.04,1048.59z"
		/>
	<path class="st1" d="M-90.8,726.03V547.99l-43.14-43.14V335.58h37.91V23.77h-3.6v308.21h-37.91v174.36l43.13,43.14v176.54
		c-2.86,0.8-4.97,3.39-4.97,6.51c0,3.74,3.03,6.78,6.78,6.78c3.74,0,6.77-3.04,6.77-6.78C-85.83,729.43-87.94,726.83-90.8,726.03z"
		/>
	<path class="st1" d="M-84.69,692.88c0,3.75,3.04,6.78,6.78,6.78c3.74,0,6.78-3.03,6.78-6.78c0-3.11-2.12-5.71-4.98-6.51V540.6
		l-43.13-43.14V350.15h37.91V16.38h-3.6v330.16h-37.91v152.41l43.14,43.14v144.28C-82.57,687.17-84.69,689.77-84.69,692.88z"/>
	<path class="st1" d="M-106.44,492.95l43.13,43.13v115.45c-2.86,0.79-4.98,3.39-4.98,6.5c0,3.75,3.04,6.78,6.77,6.78
		c3.74,0,6.78-3.03,6.78-6.78c0-3.11-2.12-5.7-4.97-6.5V534.59l-43.14-43.14V367.12h37.91V10.37h-3.61v353.14h-37.91V492.95z"/>
	<path class="st1" d="M389.28,1036.39V913.02l-43.13-43.13V700.61h37.91V295.82h-3.6V697h-37.91v174.38l43.13,43.14v121.87
		c-2.86,0.78-4.97,3.39-4.97,6.5c0,3.74,3.03,6.79,6.78,6.79c3.74,0,6.77-3.04,6.77-6.79
		C394.25,1039.77,392.14,1037.18,389.28,1036.39z"/>
	<path class="st1" d="M403.97,1006.19V905.63l-43.13-43.14V715.17h37.91V288.43h-3.6v423.15h-37.91v152.41l43.13,43.13v99.07
		c-2.86,0.79-4.97,3.39-4.97,6.5c0,3.74,3.04,6.77,6.77,6.77c3.74,0,6.78-3.03,6.78-6.77
		C408.95,1009.58,406.83,1006.98,403.97,1006.19z"/>
	<path class="st1" d="M420.37,1000.18V899.62l-43.13-43.14V732.14h37.91V282.42h-3.61v446.11h-37.91v129.45l43.14,43.13v99.07
		c-2.86,0.8-4.97,3.39-4.97,6.51c0,3.74,3.03,6.77,6.77,6.77c3.74,0,6.78-3.03,6.78-6.77
		C425.35,1003.58,423.23,1000.97,420.37,1000.18z"/>
	<path class="st1" d="M272.51,692.63h-65.39c-0.8-2.86-3.39-4.98-6.51-4.98c-3.74,0-6.78,3.04-6.78,6.77c0,3.75,3.03,6.78,6.78,6.78
		c3.11,0,5.71-2.11,6.51-4.97h68.99v-62.49l-43.13-43.14V421.33h37.91V109.52h-3.61v308.2h-37.91V592.1l43.14,43.13V692.63z"/>
	<path class="st1" d="M247.68,435.9h37.91V102.13h-3.61V432.3h-37.91v152.41l43.13,43.13v85.68h-53.66
		c-0.79-2.86-3.39-4.97-6.5-4.97c-3.74,0-6.77,3.03-6.77,6.77c0,3.74,3.03,6.77,6.77,6.77c3.12,0,5.71-2.12,6.5-4.98h57.27v-90.77
		l-43.14-43.14V435.9z"/>
	<path class="st1" d="M307.22,779.48V620.34l-43.14-43.13V452.86h37.91V96.12h-3.6v353.14h-37.91V578.7l43.13,43.13v157.65
		c-2.86,0.79-4.97,3.38-4.97,6.49c0,3.75,3.03,6.78,6.77,6.78c3.74,0,6.78-3.03,6.78-6.78
		C312.19,782.87,310.08,780.27,307.22,779.48z"/>
	<path class="st1" d="M282.04,547.04c-2.86,0.8-4.97,3.38-4.97,6.5c0,3.74,3.03,6.78,6.77,6.78c3.74,0,6.77-3.04,6.77-6.78
		c0-3.12-2.11-5.71-4.97-6.5V471.8h37.91V159.99h-3.61V468.2h-37.91V547.04z"/>
	<path class="st1" d="M296.74,569.57c-2.86,0.79-4.97,3.38-4.97,6.5c0,3.75,3.04,6.78,6.77,6.78c3.74,0,6.78-3.03,6.78-6.78
		c0-3.12-2.11-5.71-4.97-6.5v-83.2h37.91V152.6h-3.6v330.16h-37.91V569.57z"/>
	<path class="st1" d="M316.74,585.79v-82.46h37.92V146.59h-3.61v353.13h-37.91v86.07c-2.86,0.79-4.97,3.39-4.97,6.51
		c0,3.74,3.03,6.77,6.77,6.77c3.75,0,6.78-3.03,6.78-6.77C321.72,589.17,319.6,586.58,316.74,585.79z"/>
	<path class="st1" d="M372.08,572.93h-21.51v60.62c-2.86,0.79-4.97,3.39-4.97,6.5c0,3.74,3.04,6.78,6.77,6.78
		c3.74,0,6.78-3.04,6.78-6.78c0-3.11-2.11-5.71-4.97-6.5v-57.02h14.31v99.13h-34.3V548.6h37.91V244.2h-3.6v300.8h-37.91v134.28
		h41.51V572.93z"/>
	<path class="st1" d="M722.69,1184.9v-123.36l-43.13-43.14V775.83H572.4v-452.1h-3.6v455.7h107.15v240.46l43.14,43.14v121.87
		c-2.86,0.8-4.98,3.37-4.98,6.5c0,3.74,3.04,6.77,6.78,6.77c3.74,0,6.77-3.03,6.77-6.77
		C727.66,1188.28,725.55,1185.69,722.69,1184.9z"/>
	<path class="st1" d="M737.39,1154.71v-100.56l-43.14-43.14V759.3H587.09V323.73h-3.6v439.17h107.15v249.59l43.15,43.14v99.07
		c-2.87,0.8-4.98,3.39-4.98,6.51c0,3.73,3.04,6.77,6.77,6.77c3.75,0,6.77-3.04,6.77-6.77
		C742.35,1158.09,740.24,1155.5,737.39,1154.71z"/>
	<path class="st1" d="M603.39,701.64c3.11,0,5.71-2.11,6.5-4.97h35.79v-62.49l-43.13-43.14V421.76h37.91v-311.8h-3.61v308.2h-37.9
		v174.37l43.13,43.13v57.4h-32.19c-0.79-2.86-3.39-4.97-6.5-4.97c-3.75,0-6.79,3.04-6.79,6.78
		C596.6,698.6,599.64,701.64,603.39,701.64z"/>
	<path class="st1" d="M613.64,585.14l43.12,43.14v85.67h-20.45c-0.79-2.86-3.39-4.97-6.5-4.97c-3.75,0-6.78,3.03-6.78,6.77
		c0,3.74,3.04,6.78,6.78,6.78c3.11,0,5.71-2.11,6.5-4.97h24.06v-90.78l-43.13-43.13V436.33h37.91V102.57h-3.6v330.16h-37.91V585.14z
		"/>
	<path class="st1" d="M630.03,579.13l43.13,43.13V735.4c-2.86,0.8-4.97,3.39-4.97,6.51c0,3.74,3.04,6.77,6.78,6.77
		c3.75,0,6.77-3.03,6.77-6.77c0-3.11-2.11-5.71-4.97-6.51V620.77l-43.13-43.14V453.29h37.91V96.55h-3.59v353.14h-37.92V579.13z"/>
	<path class="st1" d="M651.6,547.46c-2.86,0.8-4.97,3.39-4.97,6.51c0,3.74,3.03,6.77,6.77,6.77c3.74,0,6.77-3.03,6.77-6.77
		c0-3.12-2.11-5.71-4.97-6.51v-75.24h37.91V160.42h-3.6v308.21H651.6V547.46z"/>
	<path class="st1" d="M666.3,570c-2.86,0.79-4.98,3.38-4.98,6.5c0,3.74,3.04,6.78,6.77,6.78c3.74,0,6.78-3.04,6.78-6.78
		c0-3.12-2.11-5.71-4.98-6.5v-83.2h37.91V153.02h-3.61v330.17H666.3V570z"/>
	<path class="st1" d="M682.7,586.21c-2.86,0.8-4.98,3.39-4.98,6.51c0,3.74,3.04,6.77,6.78,6.77c3.75,0,6.77-3.03,6.77-6.77
		c0-3.12-2.11-5.71-4.98-6.51v-82.46h37.91V147.02h-3.61v353.13H682.7V586.21z"/>
	<path class="st1" d="M700.13,679.7h41.52V573.36h-21.51v60.62c-2.86,0.78-4.98,3.38-4.98,6.51c0,3.74,3.03,6.77,6.77,6.77
		c3.75,0,6.77-3.03,6.77-6.77c0-3.12-2.11-5.71-4.96-6.51v-57.01h14.3v99.13h-34.3V549.03h37.91v-304.4h-3.61v300.79h-37.91V679.7z"
		/>
	<path class="st1" d="M560.82,1155.39v-100.56l-43.14-43.14V887.35h37.91V323.73h-3.61v560.02h-37.91v129.45l43.13,43.13v99.07
		c-2.86,0.8-4.97,3.39-4.97,6.5c0,3.76,3.03,6.79,6.77,6.79c3.75,0,6.77-3.03,6.77-6.79
		C565.79,1158.78,563.68,1156.19,560.82,1155.39z"/>
	<path class="st1" d="M477.06,832.84V654.8l-43.14-43.13V442.39h37.91V130.58h-3.6v308.2h-37.91v174.38l43.13,43.13v176.54
		c-2.86,0.79-4.97,3.39-4.97,6.51c0,3.74,3.03,6.77,6.77,6.77c3.75,0,6.78-3.03,6.78-6.77
		C482.04,836.22,479.93,833.63,477.06,832.84z"/>
	<path class="st1" d="M483.18,799.69c0,3.75,3.04,6.78,6.77,6.78c3.75,0,6.77-3.03,6.77-6.78c0-3.12-2.11-5.71-4.97-6.5V647.41
		l-43.13-43.13V456.96h37.91V123.19h-3.6v330.17h-37.91v152.41l43.13,43.13v144.29C485.29,793.98,483.18,796.58,483.18,799.69z"/>
	<path class="st1" d="M461.42,599.75l43.13,43.14v115.45c-2.86,0.79-4.98,3.39-4.98,6.5c0,3.75,3.03,6.78,6.77,6.78
		c3.75,0,6.78-3.03,6.78-6.78c0-3.11-2.11-5.7-4.98-6.5V641.4l-43.13-43.14V473.92h37.91V117.18h-3.61v353.13h-37.91V599.75z"/>
	<path class="st1" d="M1042.17,887.99V764.62l-43.13-43.13V478.92H891.88V26.82h-3.59v455.7h107.14v240.46l43.14,43.14v121.87
		c-2.86,0.79-4.98,3.39-4.98,6.51c0,3.73,3.04,6.77,6.78,6.77c3.75,0,6.77-3.04,6.77-6.77
		C1047.15,891.38,1045.03,888.78,1042.17,887.99z"/>
	<path class="st1" d="M1056.86,857.79V757.24l-43.13-43.14V462.39H906.58V26.82h-3.61v439.17h107.15v249.6l43.13,43.13v99.07
		c-2.87,0.79-4.97,3.39-4.97,6.51c0,3.74,3.03,6.77,6.77,6.77c3.75,0,6.78-3.04,6.78-6.77
		C1061.83,861.19,1059.73,858.59,1056.86,857.79z"/>
	<path class="st1" d="M1078.32,739.9V616.54l-43.14-43.14V404.12h37.91V92.32h-3.59v308.2h-37.91v174.37l43.13,43.14V739.9
		c-2.86,0.79-4.97,3.38-4.97,6.5c0,3.74,3.03,6.78,6.77,6.78c3.75,0,6.78-3.03,6.78-6.78
		C1083.29,743.29,1081.19,740.7,1078.32,739.9z"/>
	<path class="st1" d="M1093.01,709.7V609.14L1049.88,566V418.69h37.91V84.93h-3.61v330.16h-37.91V567.5l43.14,43.14v99.07
		c-2.86,0.8-4.98,3.39-4.98,6.51c0,3.74,3.04,6.77,6.78,6.77c3.73,0,6.77-3.04,6.77-6.77
		C1097.98,713.09,1095.88,710.5,1093.01,709.7z"/>
	<path class="st1" d="M1109.41,703.7V603.13L1066.28,560V435.66h37.91V78.92h-3.61v353.14h-37.91v129.44l43.14,43.13v99.08
		c-2.86,0.79-4.98,3.39-4.98,6.5c0,3.74,3.04,6.77,6.78,6.77s6.77-3.03,6.77-6.77C1114.39,707.09,1112.28,704.5,1109.41,703.7z"/>
	<path class="st1" d="M922.87,404.72c3.12,0,5.71-2.11,6.51-4.97h35.79v-62.49l-43.14-43.14V124.85h37.91v-311.81h-3.61v308.21
		h-37.91v174.37l43.13,43.14v57.39h-32.19c-0.79-2.86-3.39-4.97-6.51-4.97c-3.74,0-6.78,3.03-6.78,6.77
		C916.08,401.68,919.13,404.72,922.87,404.72z"/>
	<path class="st1" d="M933.12,288.22l43.14,43.13v85.68H955.8c-0.79-2.86-3.39-4.97-6.51-4.97c-3.74,0-6.77,3.03-6.77,6.77
		c0,3.74,3.04,6.78,6.77,6.78c3.11,0,5.71-2.11,6.51-4.97h24.05v-90.77l-43.13-43.13V139.42h37.91v-333.77h-3.61v330.17h-37.91
		V288.22z"/>
	<path class="st1" d="M949.52,282.21l43.13,43.14V438.5c-2.86,0.79-4.98,3.39-4.98,6.5c0,3.74,3.04,6.78,6.78,6.78
		c3.75,0,6.78-3.03,6.78-6.78c0-3.11-2.11-5.7-4.97-6.5V323.86l-43.14-43.13V156.38h37.9v-356.74h-3.59v353.14h-37.91V282.21z"/>
	<path class="st1" d="M1061.13,276.45h-21.52v60.62c-2.86,0.8-4.97,3.39-4.97,6.5c0,3.74,3.04,6.77,6.77,6.77
		c3.74,0,6.77-3.03,6.77-6.77c0-3.11-2.11-5.7-4.97-6.5v-57.02h14.31v99.13h-34.31V252.12h37.91v-304.4h-3.61v300.79h-37.91v134.28
		h41.52V276.45z"/>
	<path class="st1" d="M808.07,563.63h32.92V329.41l-34.92-32.45V196.94h38.25V33.6c2.86-0.8,4.98-3.39,4.98-6.51
		c0-3.74-3.04-6.77-6.77-6.77c-3.75,0-6.78,3.03-6.78,6.77c0,3.12,2.11,5.72,4.98,6.51v159.75h-38.26v105.19l34.92,32.44v229.04
		h-32.92v169.47l43.13,43.13v129c0,0,0.5-0.08,0,0c-1.8,0.28-5.31,3.68-1.21,7.35c0.39,0.34,1.71,1,2.92,1
		c0.91,0.01,2.82-0.71,3.22-1.09c3.46-3.22,0.43-7.04-0.85-7.27c-0.15-0.03-0.47-0.19-0.47-0.19v-130.3l-43.13-43.13V563.63z"/>
	<path class="st1" d="M822.76,580.32h37.91V320.16l-37.91-38.29v-67.3h37.97V-25.84c2.86-0.8,4.98-3.39,4.98-6.5
		c0-3.75-3.04-6.78-6.78-6.78c-3.74,0-6.77,3.04-6.77,6.78c0,3.11,2.11,5.71,4.98,6.5v236.8h-37.98v72.38l37.91,38.3v255.07h-37.91
		v152.41l43.14,43.14v112.35h3.6V770.77l-43.13-43.13V580.32z"/>
	<path class="st1" d="M880.3,858.49V757.92l-43.13-43.14V590.44h37.91V26.82h-3.61v560.01h-37.91v129.45l43.13,43.13v99.07
		c-2.86,0.79-4.98,3.39-4.98,6.5c0,3.74,3.04,6.77,6.77,6.77c3.75,0,6.78-3.03,6.78-6.77C885.28,861.88,883.16,859.28,880.3,858.49z
		"/>
	<path class="st1" d="M796.55,535.92V357.89l-43.14-43.14V145.48h37.91v-311.81h-3.61v308.21h-37.91v174.37l0.21,0.21v380.98h-37.91
		V871.8l43.13,43.14v121.87c-2.86,0.8-4.97,3.39-4.97,6.5c0,3.75,3.03,6.79,6.77,6.79c3.74,0,6.78-3.04,6.78-6.79
		c0-3.11-2.12-5.7-4.98-6.5V913.44l-43.14-43.13V701.04h37.91V320.05l11.09,11.09V712h-37.91v152.41l43.15,43.14v99.07
		c-2.87,0.8-4.98,3.39-4.98,6.5c0,3.75,3.03,6.79,6.77,6.79c3.73,0,6.77-3.04,6.77-6.79c0-3.11-2.11-5.7-4.97-6.5V906.06
		l-43.12-43.15V715.61h37.9V334.75l12.8,12.8v381.41H743.2v129.45l43.13,43.14v99.07c-2.86,0.8-4.98,3.39-4.98,6.5
		c0,3.75,3.04,6.77,6.78,6.77c3.74,0,6.77-3.03,6.77-6.77c0-3.11-2.11-5.71-4.98-6.5V900.04l-43.13-43.13V732.57h37.91V351.15
		l8.23,8.23v176.54c-2.86,0.8-4.98,3.39-4.98,6.51c0,3.74,3.04,6.77,6.78,6.77c3.74,0,6.77-3.03,6.77-6.77
		C801.51,539.32,799.4,536.72,796.55,535.92z"/>
	<path class="st1" d="M802.66,502.78c0,3.74,3.04,6.78,6.78,6.78c3.74,0,6.77-3.04,6.77-6.78c0-3.11-2.12-5.71-4.98-6.51V350.5
		l-43.14-43.14V160.05h37.91v-333.77h-3.61v330.16H764.5v152.41l43.13,43.13v144.28C804.77,497.07,802.66,499.67,802.66,502.78z"/>
	<path class="st1" d="M780.9,302.84l43.13,43.14v115.45c-2.86,0.79-4.98,3.39-4.98,6.5c0,3.74,3.04,6.78,6.77,6.78
		c3.74,0,6.78-3.04,6.78-6.78c0-3.11-2.12-5.7-4.98-6.5V344.49l-43.13-43.14V177.01h37.91v-356.74h-3.61V173.4H780.9V302.84z"/>
	<path class="st1" d="M1276.63,846.29V722.92l-43.14-43.14v-47.54V510.51h37.91V198.7h-3.6v308.2h-37.91v125.35v49.02v67.16
		c-2.86,0.79-4.98,3.39-4.98,6.5c0,3.74,3.04,6.77,6.77,6.77c3.74,0,6.78-3.04,6.78-6.77c0-3.12-2.11-5.71-4.98-6.5v-63.56
		l11.09,11.09v109.25c-2.87,0.79-4.97,3.39-4.97,6.5c0,3.74,3.03,6.77,6.77,6.77c3.75,0,6.78-3.03,6.78-6.77
		c0-3.11-2.11-5.71-4.97-6.5V699.57l24.83,24.84v121.88c-2.86,0.79-4.97,3.38-4.97,6.49c0,3.75,3.03,6.78,6.77,6.78
		c3.75,0,6.77-3.03,6.77-6.78C1281.59,849.68,1279.49,847.08,1276.63,846.29z"/>
	<path class="st1" d="M1291.31,816.09V715.53l-43.13-43.14V525.07h37.9V191.31h-3.6v330.17h-37.91v152.41l43.13,43.13v99.07
		c-2.86,0.79-4.98,3.39-4.98,6.5c0,3.75,3.04,6.77,6.77,6.77c3.74,0,6.78-3.03,6.78-6.77
		C1296.29,819.48,1294.17,816.88,1291.31,816.09z"/>
	<path class="st1" d="M1307.71,810.08V709.51l-43.13-43.13V542.04h37.91V185.3h-3.61v353.14h-37.91v129.44l43.14,43.14v99.07
		c-2.87,0.8-4.98,3.39-4.98,6.51c0,3.74,3.04,6.78,6.78,6.78c3.74,0,6.78-3.04,6.78-6.78
		C1312.7,813.47,1310.58,810.87,1307.71,810.08z"/>
	<path class="st1" d="M1159.86,502.53h-65.39c-0.79-2.86-3.39-4.97-6.51-4.97c-3.74,0-6.77,3.03-6.77,6.77
		c0,3.75,3.03,6.78,6.77,6.78c3.11,0,5.71-2.11,6.51-4.97h69v-62.49l-43.13-43.14V231.23h37.91V-80.58h-3.61v308.2h-37.9V402
		l43.13,43.13V502.53z"/>
	<path class="st1" d="M1135.02,245.8h37.91V-87.97h-3.61v330.17h-37.9v152.41l43.13,43.13v85.68h-53.65
		c-0.8-2.86-3.39-4.97-6.51-4.97c-3.75,0-6.77,3.03-6.77,6.77c0,3.74,3.03,6.77,6.77,6.77c3.11,0,5.71-2.12,6.51-4.97h57.27v-90.77
		l-43.14-43.14V245.8z"/>
	<path class="st1" d="M1194.56,589.38V430.24l-43.13-43.13V262.76h37.9V-93.98h-3.59v353.14h-37.91v129.44l43.13,43.13v157.65
		c-2.85,0.79-4.97,3.38-4.97,6.5c0,3.75,3.04,6.78,6.78,6.78c3.74,0,6.77-3.03,6.77-6.78
		C1199.53,592.76,1197.43,590.17,1194.56,589.38z"/>
	<path class="st1" d="M1169.39,356.93c-2.86,0.8-4.96,3.39-4.96,6.51c0,3.74,3.02,6.78,6.78,6.78c3.74,0,6.77-3.04,6.77-6.78
		c0-3.12-2.11-5.71-4.97-6.51v-75.24h37.91V-30.11h-3.6v308.21h-37.91V356.93z"/>
	<path class="st1" d="M1184.08,379.46c-2.86,0.79-4.97,3.38-4.97,6.5c0,3.75,3.03,6.77,6.77,6.77c3.74,0,6.78-3.03,6.78-6.77
		c0-3.12-2.11-5.71-4.98-6.5v-83.2h37.91V-37.5h-3.61v330.16h-37.91V379.46z"/>
	<path class="st1" d="M1204.08,395.68v-82.46H1242V-43.51h-3.6v353.14h-37.91v86.06c-2.86,0.79-4.98,3.39-4.98,6.51
		c0,3.74,3.03,6.77,6.77,6.77c3.75,0,6.78-3.03,6.78-6.77C1209.06,399.07,1206.95,396.48,1204.08,395.68z"/>
	<path class="st1" d="M1259.43,382.83h-21.52v60.62c-2.85,0.79-4.97,3.39-4.97,6.5c0,3.74,3.04,6.78,6.77,6.78s6.78-3.04,6.78-6.78
		c0-3.11-2.12-5.71-4.98-6.5v-57.02h14.31v99.13h-34.31V358.5h37.91V54.1h-3.6v300.8h-37.91v134.28h41.51V382.83z"/>
</g>
<g class="st0">
	<path class="st1" d="M1566.64,642.74l-43.13-43.13V430.32h37.91V118.52h-3.6v308.21h-37.91V601.1l43.13,43.13v57.4h-32.19
		c-0.8-2.86-3.39-4.98-6.5-4.98c-3.74,0-6.78,3.04-6.78,6.78c0,3.73,3.04,6.77,6.78,6.77c3.11,0,5.71-2.12,6.5-4.98h35.79V642.74z"
		/>
	<path class="st1" d="M1538.2,444.9h37.91V111.13h-3.6v330.16h-37.91V593.7l43.13,43.14v85.68h-20.45
		c-0.79-2.86-3.39-4.97-6.51-4.97c-3.74,0-6.78,3.03-6.78,6.77c0,3.74,3.04,6.78,6.78,6.78c3.11,0,5.71-2.11,6.5-4.97h24.06v-90.78
		l-43.13-43.13V444.9z"/>
	<path class="st1" d="M1597.73,743.97V629.34l-43.14-43.14V461.86h37.91V105.12h-3.6v353.14h-37.91V587.7l43.13,43.13v113.14
		c-2.86,0.8-4.97,3.4-4.97,6.51c0,3.73,3.04,6.77,6.78,6.77c3.75,0,6.77-3.04,6.77-6.77C1602.7,747.37,1600.6,744.77,1597.73,743.97
		z"/>
	<path class="st1" d="M1572.56,556.03c-2.86,0.8-4.97,3.39-4.97,6.5c0,3.74,3.03,6.78,6.77,6.78c3.74,0,6.78-3.04,6.78-6.78
		c0-3.11-2.11-5.71-4.97-6.5v-75.24h37.91V168.99h-3.6v308.21h-37.91V556.03z"/>
	<path class="st1" d="M1587.26,578.56c-2.86,0.79-4.98,3.39-4.98,6.51c0,3.74,3.04,6.77,6.78,6.77c3.74,0,6.77-3.03,6.77-6.77
		c0-3.12-2.11-5.71-4.97-6.51v-83.2h37.91V161.59h-3.6v330.17h-37.91V578.56z"/>
	<path class="st1" d="M1607.26,594.78v-82.46h37.91V155.59h-3.61v353.13h-37.91v86.06c-2.86,0.8-4.98,3.39-4.98,6.51
		c0,3.74,3.04,6.77,6.78,6.77s6.77-3.03,6.77-6.77C1612.24,598.17,1610.12,595.57,1607.26,594.78z"/>
	<path class="st1" d="M1659,553.99h-37.91v134.28h41.52V581.93h-21.51v60.62c-2.86,0.78-4.98,3.39-4.98,6.51
		c0,3.73,3.03,6.76,6.78,6.76c3.74,0,6.77-3.03,6.77-6.76c0-3.13-2.11-5.71-4.97-6.51v-57.01h14.3v99.13h-34.3V557.59h37.91v-304.4
		H1659V553.99z"/>
	<path class="st1" d="M1398.02,841.41V663.36l-43.14-43.13V450.96h37.91V139.15h-3.6v308.2h-37.91v174.38l43.14,43.14v176.54
		c-2.86,0.79-4.98,3.39-4.98,6.51c0,3.74,3.04,6.77,6.78,6.77c3.74,0,6.78-3.03,6.78-6.77C1403,844.79,1400.88,842.2,1398.02,841.41
		z"/>
	<path class="st1" d="M1412.71,801.75V655.98l-43.13-43.13V465.53h37.91V131.76h-3.6v330.16h-37.91v152.41l43.13,43.14v144.28
		c-2.86,0.8-4.98,3.39-4.98,6.51c0,3.75,3.04,6.77,6.78,6.77s6.77-3.03,6.77-6.77C1417.68,805.14,1415.57,802.54,1412.71,801.75z"/>
	<path class="st1" d="M1429.11,766.91V649.97l-43.13-43.14V482.49h37.91V125.75h-3.6v353.13h-37.91v129.44l43.13,43.13v115.46
		c-2.86,0.79-4.97,3.39-4.97,6.5c0,3.74,3.03,6.78,6.78,6.78c3.74,0,6.78-3.04,6.78-6.78
		C1434.09,770.3,1431.97,767.71,1429.11,766.91z"/>
	<path class="st1" d="M1963.13,896.56V773.19l-43.14-43.13V487.48h-107.15V35.39h-3.6v455.69h107.14v240.46l43.14,43.14v121.87
		c-2.86,0.8-4.98,3.39-4.98,6.5c0,3.74,3.04,6.77,6.78,6.77c3.74,0,6.78-3.03,6.78-6.77
		C1968.11,899.95,1965.99,897.34,1963.13,896.56z"/>
	<path class="st1" d="M2340.02,1016.68V886.51l-43.13-43.14V679h32.92V444.78l-34.92-32.44V312.33h38.25V148.97
		c2.86-0.79,4.97-3.39,4.97-6.5c0-3.75-3.03-6.78-6.77-6.78c-3.73,0-6.77,3.03-6.77,6.78c0,3.11,2.12,5.7,4.97,6.5v159.74h-38.25
		v105.2l34.92,32.45V675.4h-32.92v169.46l43.13,43.14v128.63c-2.91,0.76-5.07,3.37-5.07,6.53c0,3.75,3.04,6.77,6.77,6.77
		c3.75,0,6.79-3.03,6.79-6.77C2344.9,1020.07,2342.83,1017.51,2340.02,1016.68z"/>
	<path class="st1" d="M2354.73,993.62V886.15l-43.15-43.14v-147.3h37.91V435.55l-37.91-38.3v-67.3h37.98V89.54
		c2.85-0.8,4.97-3.39,4.97-6.51c0-3.74-3.04-6.77-6.77-6.77c-3.74,0-6.78,3.04-6.78,6.77c0,3.12,2.11,5.71,4.97,6.51v236.8h-37.97
		v72.39l37.91,38.3V692.1h-37.91v152.41l43.14,43.14v105.74c-3.06,0.65-5.36,3.36-5.36,6.62c0,3.73,3.03,6.76,6.77,6.76
		c3.73,0,6.78-3.03,6.78-6.76C2359.31,997.03,2357.38,994.54,2354.73,993.62z"/>
	<path class="st1" d="M1977.82,866.36V765.8l-43.13-43.14v-251.7h-107.15V35.39h-3.61v439.17h107.15v249.59l43.14,43.14v99.07
		c-2.86,0.78-4.97,3.39-4.97,6.51c0,3.73,3.03,6.77,6.77,6.77c3.75,0,6.77-3.04,6.77-6.77
		C1982.79,869.75,1980.68,867.15,1977.82,866.36z"/>
	<path class="st1" d="M1999.28,748.47V625.11l-43.14-43.14V412.69h37.91V100.89h-3.6v308.2h-37.91v174.37l43.13,43.14v121.88
		c-2.86,0.79-4.97,3.38-4.97,6.5c0,3.75,3.04,6.77,6.77,6.77c3.75,0,6.78-3.03,6.78-6.77
		C2004.25,751.86,2002.14,749.27,1999.28,748.47z"/>
	<path class="st1" d="M2013.97,718.28V617.71l-43.13-43.14V427.26h37.91V93.49h-3.61v330.16h-37.91v152.41l43.14,43.14v99.07
		c-2.86,0.79-4.97,3.39-4.97,6.51c0,3.74,3.03,6.77,6.77,6.77c3.74,0,6.78-3.03,6.78-6.77
		C2018.94,721.66,2016.83,719.06,2013.97,718.28z"/>
	<path class="st1" d="M2030.37,712.27V611.7l-43.13-43.13V444.22h37.91V87.48h-3.61v353.14h-37.91v129.44l43.14,43.13v99.08
		c-2.86,0.78-4.98,3.39-4.98,6.5c0,3.74,3.04,6.77,6.78,6.77c3.74,0,6.77-3.03,6.77-6.77
		C2035.35,715.66,2033.23,713.06,2030.37,712.27z"/>
	<path class="st1" d="M1843.83,413.29c3.11,0,5.71-2.11,6.5-4.97h35.8v-62.49l-43.14-43.14V133.42h37.91V-178.4h-3.6v308.21h-37.91
		v174.37l43.13,43.14v57.39h-32.19c-0.79-2.86-3.38-4.97-6.5-4.97c-3.74,0-6.78,3.03-6.78,6.77
		C1837.04,410.25,1840.08,413.29,1843.83,413.29z"/>
	<path class="st1" d="M1854.07,296.79l43.14,43.13v85.68h-20.45c-0.79-2.86-3.39-4.97-6.51-4.97c-3.74,0-6.78,3.03-6.78,6.77
		c0,3.74,3.04,6.78,6.78,6.78c3.11,0,5.71-2.11,6.51-4.97h24.05v-90.77l-43.13-43.13V147.98h37.91v-333.77h-3.6v330.17h-37.91
		V296.79z"/>
	<path class="st1" d="M1870.48,290.78l43.13,43.14v113.15c-2.86,0.79-4.98,3.39-4.98,6.5c0,3.75,3.04,6.78,6.78,6.78
		c3.75,0,6.78-3.03,6.78-6.78c0-3.12-2.11-5.7-4.97-6.5V332.42l-43.14-43.13V164.95h37.91V-191.8h-3.6v353.14h-37.91V290.78z"/>
	<path class="st1" d="M1892.04,259.12c-2.86,0.8-4.97,3.39-4.97,6.5c0,3.74,3.03,6.78,6.78,6.78c3.74,0,6.78-3.04,6.78-6.78
		c0-3.11-2.11-5.71-4.97-6.5v-75.24h37.91v-311.81h-3.61v308.21h-37.91V259.12z"/>
	<path class="st1" d="M1906.74,281.65c-2.86,0.79-4.97,3.38-4.97,6.5c0,3.74,3.04,6.78,6.77,6.78c3.74,0,6.78-3.04,6.78-6.78
		c0-3.12-2.11-5.71-4.97-6.5v-83.2h37.91v-333.77h-3.6v330.16h-37.91V281.65z"/>
	<path class="st1" d="M1923.14,297.87c-2.86,0.8-4.97,3.39-4.97,6.51c0,3.74,3.04,6.77,6.78,6.77c3.74,0,6.78-3.03,6.78-6.77
		c0-3.12-2.12-5.71-4.98-6.51v-82.46h37.92v-356.75h-3.61v353.14h-37.91V297.87z"/>
	<path class="st1" d="M1940.57,391.36h41.51V285.02h-21.51v60.62c-2.86,0.79-4.98,3.38-4.98,6.5c0,3.74,3.04,6.77,6.78,6.77
		c3.74,0,6.78-3.03,6.78-6.77c0-3.11-2.11-5.7-4.97-6.5v-57.02h14.3v99.13h-34.3V260.68h37.91v-304.4h-3.61v300.8h-37.91V391.36z"/>
	<path class="st1" d="M1729.03,572.19h32.92V337.98l-34.92-32.45V205.51h38.25V42.17c2.86-0.8,4.97-3.39,4.97-6.51
		c0-3.74-3.03-6.77-6.77-6.77c-3.74,0-6.78,3.03-6.78,6.77c0,3.12,2.11,5.71,4.97,6.51v159.75h-38.25v105.19l34.92,32.44v229.04
		h-32.92v169.47l43.13,43.13v135.16h3.61V779.69l-43.13-43.13V572.19z"/>
	<path class="st1" d="M1743.72,588.89h37.91V328.73l-37.91-38.29v-67.3h37.97V-17.27c2.86-0.8,4.97-3.39,4.97-6.5
		c0-3.74-3.04-6.78-6.78-6.78c-3.74,0-6.77,3.03-6.77,6.78c0,3.12,2.11,5.71,4.97,6.5v236.8h-37.97v72.38l37.91,38.3v255.07h-37.91
		v152.41l43.13,43.14v112.35h3.6V779.34l-43.13-43.13V588.89z"/>
	<path class="st1" d="M1801.26,867.05V766.49l-43.13-43.13V599.01h37.91V35.39h-3.6V595.4h-37.91v129.44l43.13,43.14v99.07
		c-2.86,0.8-4.97,3.39-4.97,6.51c0,3.74,3.03,6.77,6.77,6.77c3.75,0,6.78-3.03,6.78-6.77
		C1806.23,870.44,1804.12,867.85,1801.26,867.05z"/>
	<path class="st1" d="M1717.5,544.49V366.46l-43.14-43.14V154.05h37.91v-311.81h-3.6v308.21h-37.91v174.36l43.13,43.14v176.54
		c-2.86,0.8-4.97,3.39-4.97,6.51c0,3.74,3.03,6.78,6.78,6.78c3.74,0,6.77-3.04,6.77-6.78
		C1722.47,547.89,1720.36,545.29,1717.5,544.49z"/>
	<path class="st1" d="M1723.62,511.34c0,3.75,3.04,6.78,6.78,6.78c3.74,0,6.78-3.03,6.78-6.78c0-3.11-2.12-5.71-4.98-6.51V359.06
		l-43.13-43.14V168.61h37.91v-333.77h-3.6v330.16h-37.91v152.41l43.14,43.14v144.28C1725.73,505.64,1723.62,508.23,1723.62,511.34z"
		/>
	<path class="st1" d="M1701.86,311.42l43.13,43.13V470c-2.86,0.79-4.98,3.39-4.98,6.5c0,3.75,3.04,6.78,6.77,6.78
		c3.74,0,6.78-3.03,6.78-6.78c0-3.11-2.12-5.7-4.97-6.5V353.05l-43.14-43.14V185.58h37.91v-356.75h-3.61v353.14h-37.91V311.42z"/>
	<path class="st1" d="M2197.58,854.85V731.49l-43.13-43.13V519.07h37.91V114.29h-3.6v401.18h-37.91v174.38l43.13,43.14v121.87
		c-2.86,0.78-4.97,3.39-4.97,6.5c0,3.74,3.03,6.79,6.78,6.79c3.74,0,6.77-3.04,6.77-6.79
		C2202.55,858.24,2200.44,855.65,2197.58,854.85z"/>
	<path class="st1" d="M2212.27,824.66V724.09l-43.13-43.14V533.64h37.91V106.9h-3.6v423.15h-37.91v152.41l43.13,43.13v99.07
		c-2.86,0.79-4.97,3.39-4.97,6.5c0,3.74,3.04,6.77,6.77,6.77c3.74,0,6.78-3.03,6.78-6.77
		C2217.25,828.05,2215.13,825.45,2212.27,824.66z"/>
	<path class="st1" d="M2228.67,818.65V718.08l-43.13-43.14V550.6h37.91V100.89h-3.61V547h-37.91v129.45l43.14,43.13v99.07
		c-2.86,0.8-4.97,3.39-4.97,6.51c0,3.74,3.03,6.77,6.77,6.77c3.74,0,6.78-3.03,6.78-6.77
		C2233.65,822.04,2231.53,819.44,2228.67,818.65z"/>
	<path class="st1" d="M2080.82,511.09h-65.39c-0.8-2.86-3.39-4.98-6.51-4.98c-3.74,0-6.78,3.04-6.78,6.77
		c0,3.75,3.03,6.78,6.78,6.78c3.11,0,5.71-2.11,6.51-4.97h68.99v-62.49l-43.13-43.14V239.79h37.91V-72.01h-3.61v308.2h-37.91v174.38
		l43.14,43.13V511.09z"/>
	<path class="st1" d="M2055.98,254.37h37.91V-79.4h-3.61v330.17h-37.91v152.41l43.13,43.13v85.68h-53.66
		c-0.79-2.86-3.39-4.97-6.5-4.97c-3.74,0-6.77,3.03-6.77,6.77c0,3.74,3.03,6.77,6.77,6.77c3.12,0,5.71-2.12,6.5-4.98h57.27v-90.77
		l-43.14-43.14V254.37z"/>
	<path class="st1" d="M2115.52,597.95V438.81l-43.14-43.13V271.33h37.91V-85.42h-3.6v353.14h-37.91v129.44l43.13,43.13v157.65
		c-2.86,0.79-4.97,3.38-4.97,6.49c0,3.75,3.03,6.78,6.77,6.78c3.74,0,6.78-3.03,6.78-6.78
		C2120.49,601.33,2118.38,598.74,2115.52,597.95z"/>
	<path class="st1" d="M2090.35,365.5c-2.86,0.8-4.97,3.38-4.97,6.5c0,3.74,3.03,6.78,6.77,6.78c3.74,0,6.77-3.04,6.77-6.78
		c0-3.12-2.11-5.71-4.97-6.5v-75.24h37.91V-21.55h-3.61v308.21h-37.91V365.5z"/>
	<path class="st1" d="M2105.04,388.03c-2.86,0.79-4.97,3.38-4.97,6.5c0,3.75,3.04,6.78,6.78,6.78c3.74,0,6.78-3.03,6.78-6.78
		c0-3.12-2.11-5.71-4.97-6.5v-83.2h37.91V-28.94h-3.6v330.16h-37.91V388.03z"/>
	<path class="st1" d="M2125.04,404.25v-82.46h37.92V-34.95h-3.61v353.13h-37.91v86.07c-2.86,0.79-4.97,3.39-4.97,6.51
		c0,3.74,3.03,6.77,6.77,6.77c3.75,0,6.78-3.03,6.78-6.77C2130.02,407.64,2127.9,405.04,2125.04,404.25z"/>
	<path class="st1" d="M2180.38,391.39h-21.51v60.62c-2.86,0.79-4.97,3.39-4.97,6.5c0,3.74,3.04,6.78,6.77,6.78
		c3.74,0,6.78-3.04,6.78-6.78c0-3.11-2.11-5.71-4.97-6.5V395h14.31v99.13h-34.3V367.07h37.91V62.66h-3.6v300.8h-37.91v134.28h41.51
		V391.39z"/>
	<path class="st1" d="M2530.99,1003.37V880.01l-43.13-43.14V594.29H2380.7V142.2h-3.6v455.7h107.15v240.46l43.14,43.14v121.87
		c-2.86,0.8-4.98,3.37-4.98,6.5c0,3.74,3.04,6.77,6.78,6.77c3.74,0,6.78-3.03,6.78-6.77
		C2535.97,1006.74,2533.85,1004.15,2530.99,1003.37z"/>
	<path class="st1" d="M2545.69,973.17V872.61l-43.14-43.14V577.77H2395.4V142.2h-3.6v439.17h107.15v249.59l43.15,43.14v99.07
		c-2.87,0.8-4.98,3.39-4.98,6.51c0,3.73,3.04,6.77,6.77,6.77c3.75,0,6.77-3.04,6.77-6.77
		C2550.65,976.56,2548.55,973.97,2545.69,973.17z"/>
	<path class="st1" d="M2411.69,520.1c3.11,0,5.71-2.11,6.5-4.97h35.79v-62.49l-43.13-43.14V240.22h37.91v-311.8h-3.61v308.2h-37.9
		v174.37l43.13,43.13v57.4h-32.19c-0.79-2.86-3.39-4.97-6.5-4.97c-3.75,0-6.79,3.04-6.79,6.78
		C2404.9,517.06,2407.94,520.1,2411.69,520.1z"/>
	<path class="st1" d="M2421.94,403.6l43.12,43.14v85.67h-20.45c-0.79-2.86-3.39-4.97-6.5-4.97c-3.75,0-6.78,3.03-6.78,6.77
		c0,3.74,3.04,6.78,6.78,6.78c3.11,0,5.71-2.11,6.5-4.97h24.05v-90.78l-43.13-43.13V254.8h37.91V-78.97h-3.6v330.16h-37.91V403.6z"
		/>
	<path class="st1" d="M2438.34,397.59l43.13,43.13v113.14c-2.86,0.8-4.97,3.39-4.97,6.51c0,3.74,3.04,6.77,6.78,6.77
		c3.75,0,6.77-3.03,6.77-6.77c0-3.11-2.11-5.71-4.97-6.51V439.23l-43.13-43.14V271.75h37.91V-84.99h-3.59v353.14h-37.92V397.59z"/>
	<path class="st1" d="M2459.91,365.93c-2.86,0.8-4.97,3.39-4.97,6.51c0,3.74,3.03,6.77,6.77,6.77c3.74,0,6.77-3.03,6.77-6.77
		c0-3.12-2.11-5.71-4.97-6.51v-75.24h37.91V-21.12h-3.6v308.21h-37.91V365.93z"/>
	<path class="st1" d="M2474.6,388.46c-2.86,0.79-4.98,3.38-4.98,6.5c0,3.74,3.04,6.78,6.77,6.78c3.74,0,6.78-3.04,6.78-6.78
		c0-3.12-2.11-5.71-4.98-6.5v-83.2h37.91V-28.51h-3.61v330.17h-37.91V388.46z"/>
	<path class="st1" d="M2491,404.68c-2.86,0.8-4.98,3.39-4.98,6.51c0,3.74,3.04,6.77,6.78,6.77c3.75,0,6.77-3.03,6.77-6.77
		c0-3.12-2.11-5.71-4.98-6.51v-82.46h37.91V-34.52h-3.61v353.13H2491V404.68z"/>
	<path class="st1" d="M2508.43,498.17h41.52V391.83h-21.51v60.62c-2.86,0.78-4.98,3.38-4.98,6.51c0,3.74,3.03,6.77,6.77,6.77
		c3.75,0,6.77-3.03,6.77-6.77c0-3.12-2.11-5.71-4.96-6.51v-57.01h14.3v99.13h-34.3V367.49h37.91V63.1h-3.61v300.79h-37.91V498.17z"
		/>
	<path class="st1" d="M2369.12,973.86V873.3l-43.14-43.14V705.81h37.91V142.2h-3.61v560.02h-37.91v129.45l43.13,43.13v99.07
		c-2.86,0.8-4.97,3.39-4.97,6.5c0,3.76,3.03,6.79,6.77,6.79c3.75,0,6.77-3.03,6.77-6.79
		C2374.09,977.25,2371.98,974.66,2369.12,973.86z"/>
	<path class="st1" d="M2285.36,651.3V473.26l-43.14-43.13V260.86h37.91V-50.96h-3.6v308.2h-37.91v174.38l43.13,43.13V651.3
		c-2.86,0.79-4.97,3.39-4.97,6.51c0,3.74,3.03,6.77,6.77,6.77c3.75,0,6.78-3.03,6.78-6.77
		C2290.34,654.69,2288.23,652.09,2285.36,651.3z"/>
	<path class="st1" d="M2291.48,618.15c0,3.75,3.04,6.78,6.77,6.78c3.75,0,6.77-3.03,6.77-6.78c0-3.12-2.11-5.71-4.97-6.5V465.87
		l-43.13-43.13V275.42h37.91V-58.35h-3.6v330.17h-37.91v152.41l43.13,43.13v144.29C2293.59,612.45,2291.48,615.04,2291.48,618.15z"
		/>
	<path class="st1" d="M2269.72,418.22l43.13,43.14v115.45c-2.86,0.79-4.98,3.39-4.98,6.5c0,3.75,3.03,6.78,6.77,6.78
		c3.75,0,6.78-3.03,6.78-6.78c0-3.11-2.11-5.7-4.98-6.5V459.87l-43.13-43.14V292.38h37.91V-64.35h-3.61v353.13h-37.91V418.22z"/>
	<path class="st1" d="M2850.47,706.45V583.08l-43.13-43.13V297.38h-107.15v-452.09h-3.59v455.7h107.14v240.46l43.14,43.14v121.87
		c-2.86,0.79-4.98,3.39-4.98,6.51c0,3.73,3.04,6.77,6.78,6.77c3.75,0,6.77-3.04,6.77-6.77
		C2855.45,709.84,2853.34,707.25,2850.47,706.45z"/>
	<path class="st1" d="M2865.16,676.26V575.7l-43.13-43.14V280.85h-107.15v-435.57h-3.61v439.17h107.15v249.6l43.13,43.13v99.07
		c-2.87,0.79-4.97,3.39-4.97,6.51c0,3.74,3.03,6.77,6.77,6.77c3.75,0,6.78-3.04,6.78-6.77
		C2870.14,679.65,2868.03,677.05,2865.16,676.26z"/>
	<path class="st1" d="M2886.62,558.37V435.01l-43.14-43.14V222.59h37.91V-89.22h-3.59v308.2h-37.91v174.37l43.13,43.14v121.88
		c-2.86,0.79-4.97,3.38-4.97,6.5c0,3.74,3.03,6.78,6.77,6.78c3.75,0,6.78-3.03,6.78-6.78
		C2891.6,561.76,2889.49,559.16,2886.62,558.37z"/>
	<path class="st1" d="M2901.31,528.17V427.61l-43.13-43.14V237.16h37.91V-96.61h-3.61v330.16h-37.91v152.41l43.14,43.14v99.07
		c-2.86,0.8-4.98,3.39-4.98,6.51c0,3.74,3.04,6.77,6.78,6.77c3.73,0,6.77-3.04,6.77-6.77
		C2906.29,531.56,2904.18,528.96,2901.31,528.17z"/>
	<path class="st1" d="M2917.72,522.17V421.59l-43.13-43.13V254.12h37.91v-356.74h-3.61v353.14h-37.91v129.44l43.14,43.13v99.08
		c-2.86,0.79-4.98,3.39-4.98,6.5c0,3.74,3.04,6.77,6.78,6.77s6.77-3.03,6.77-6.77C2922.69,525.56,2920.58,522.96,2917.72,522.17z"/>
	<path class="st1" d="M2731.17,223.19c3.12,0,5.71-2.11,6.51-4.97h35.79v-62.49l-43.14-43.14V-56.69h37.91V-368.5h-3.61v308.21
		h-37.91v174.37l43.13,43.14v57.39h-32.19c-0.79-2.86-3.39-4.97-6.51-4.97c-3.74,0-6.78,3.03-6.78,6.77
		C2724.39,220.15,2727.43,223.19,2731.17,223.19z"/>
	<path class="st1" d="M2741.42,106.69l43.14,43.13v85.68h-20.45c-0.79-2.86-3.39-4.97-6.51-4.97c-3.74,0-6.77,3.03-6.77,6.77
		c0,3.74,3.04,6.78,6.77,6.78c3.11,0,5.71-2.11,6.51-4.97h24.05v-90.77l-43.13-43.13V-42.12h37.91v-333.77h-3.61v330.17h-37.91
		V106.69z"/>
	<path class="st1" d="M2757.83,100.67l43.13,43.14v113.15c-2.86,0.79-4.98,3.39-4.98,6.5c0,3.74,3.04,6.78,6.77,6.78
		c3.75,0,6.78-3.03,6.78-6.78c0-3.11-2.11-5.7-4.97-6.5V142.32l-43.14-43.13V-25.16h37.9V-381.9h-3.59v353.14h-37.91V100.67z"/>
	<path class="st1" d="M2869.43,94.91h-21.52v60.62c-2.86,0.8-4.97,3.39-4.97,6.5c0,3.74,3.04,6.77,6.77,6.77s6.77-3.03,6.77-6.77
		c0-3.11-2.11-5.7-4.97-6.5V98.51h14.31v99.13h-34.31V70.58h37.91v-304.4h-3.61V66.97h-37.91v134.28h41.52V94.91z"/>
	<path class="st1" d="M2616.37,382.09h32.92V147.88l-34.92-32.45V15.41h38.25v-163.35c2.86-0.8,4.98-3.39,4.98-6.51
		c0-3.74-3.04-6.77-6.77-6.77c-3.75,0-6.78,3.03-6.78,6.77c0,3.12,2.11,5.72,4.98,6.51V11.81h-38.26V117l34.92,32.44v229.04h-32.92
		v169.47l43.13,43.13v129c0,0,0.5-0.08,0,0c-1.8,0.28-5.31,3.68-1.21,7.35c0.39,0.34,1.71,1,2.92,1c0.91,0.01,2.82-0.71,3.22-1.09
		c3.46-3.22,0.43-7.04-0.85-7.27c-0.15-0.03-0.47-0.19-0.47-0.19v-130.3l-43.13-43.13V382.09z"/>
	<path class="st1" d="M2631.06,398.79h37.91V138.63l-37.91-38.29v-67.3h37.97v-240.41c2.86-0.8,4.98-3.39,4.98-6.5
		c0-3.75-3.04-6.78-6.78-6.78c-3.74,0-6.77,3.04-6.77,6.78c0,3.11,2.11,5.71,4.98,6.5v236.8h-37.98v72.38l37.91,38.3v255.07h-37.91
		v152.41l43.14,43.14v112.35h3.6V589.23l-43.13-43.13V398.79z"/>
	<path class="st1" d="M2688.61,676.95V576.39l-43.13-43.14V408.91h37.91v-563.62h-3.61V405.3h-37.91v129.45l43.13,43.13v99.07
		c-2.86,0.79-4.98,3.39-4.98,6.5c0,3.74,3.04,6.77,6.77,6.77c3.75,0,6.78-3.03,6.78-6.77
		C2693.58,680.34,2691.46,677.75,2688.61,676.95z"/>
	<path class="st1" d="M2604.85,354.39V176.36l-43.14-43.14V-36.05h37.91v-311.81h-3.61v308.21h-37.91v174.37l0.21,0.21v380.98
		h-37.91v174.38l43.12,43.14v121.87c-2.86,0.8-4.97,3.39-4.97,6.5c0,3.75,3.03,6.79,6.77,6.79c3.74,0,6.78-3.04,6.78-6.79
		c0-3.11-2.12-5.7-4.98-6.5V731.91L2524,688.78V519.5h37.91V138.51l11.09,11.09v380.86h-37.91v152.41l43.15,43.14v99.07
		c-2.87,0.8-4.98,3.39-4.98,6.5c0,3.75,3.03,6.79,6.77,6.79c3.73,0,6.77-3.04,6.77-6.79c0-3.11-2.11-5.7-4.97-6.5V724.53
		l-43.12-43.15V534.07h37.9V153.21l12.8,12.8v381.41h-37.91v129.45l43.13,43.14v99.07c-2.86,0.8-4.98,3.39-4.98,6.5
		c0,3.75,3.04,6.77,6.78,6.77c3.74,0,6.77-3.03,6.77-6.77c0-3.11-2.11-5.71-4.98-6.5V718.51l-43.13-43.13V551.03h37.91V169.62
		l8.23,8.23v176.54c-2.86,0.8-4.98,3.39-4.98,6.51c0,3.74,3.04,6.77,6.78,6.77c3.74,0,6.77-3.03,6.77-6.77
		C2609.81,357.79,2607.71,355.19,2604.85,354.39z"/>
	<path class="st1" d="M2610.96,321.24c0,3.74,3.04,6.78,6.78,6.78c3.74,0,6.77-3.04,6.77-6.78c0-3.11-2.12-5.71-4.98-6.51V168.96
		l-43.14-43.14V-21.49h37.91v-333.77h-3.61v330.16h-37.91v152.41l43.13,43.13v144.28C2613.08,315.53,2610.96,318.13,2610.96,321.24z
		"/>
	<path class="st1" d="M2589.21,121.31l43.13,43.14v115.45c-2.86,0.79-4.98,3.39-4.98,6.5c0,3.74,3.04,6.78,6.77,6.78
		c3.74,0,6.78-3.04,6.78-6.78c0-3.11-2.12-5.7-4.98-6.5V162.95l-43.13-43.14V-4.52h37.91v-356.74h-3.61V-8.13h-37.91V121.31z"/>
	<path class="st1" d="M3084.93,664.75V541.39l-43.14-43.14v-47.54V328.97h37.91V17.16h-3.6v308.2h-37.91v125.35v49.02v67.16
		c-2.86,0.79-4.98,3.39-4.98,6.5c0,3.74,3.04,6.77,6.77,6.77c3.74,0,6.78-3.04,6.78-6.77c0-3.12-2.11-5.71-4.98-6.5v-63.56
		l11.09,11.09v109.25c-2.87,0.79-4.97,3.39-4.97,6.5c0,3.74,3.03,6.77,6.77,6.77c3.75,0,6.78-3.03,6.78-6.77
		c0-3.11-2.11-5.71-4.97-6.5V518.03l24.83,24.84v121.88c-2.86,0.79-4.97,3.38-4.97,6.49c0,3.75,3.03,6.78,6.77,6.78
		c3.75,0,6.77-3.03,6.77-6.78C3089.89,668.14,3087.79,665.55,3084.93,664.75z"/>
	<path class="st1" d="M3099.62,634.55V533.99l-43.13-43.14V343.54h37.9V9.77h-3.6v330.17h-37.91v152.41l43.13,43.13v99.07
		c-2.86,0.79-4.98,3.39-4.98,6.5c0,3.75,3.04,6.77,6.77,6.77c3.75,0,6.78-3.03,6.78-6.77
		C3104.59,637.95,3102.47,635.35,3099.62,634.55z"/>
	<path class="st1" d="M3116.01,628.54V527.98l-43.13-43.13V360.5h37.91V3.76h-3.61V356.9h-37.91v129.44l43.14,43.14v99.07
		c-2.87,0.8-4.98,3.39-4.98,6.51c0,3.74,3.04,6.78,6.78,6.78c3.74,0,6.78-3.04,6.78-6.78C3121,631.94,3118.88,629.34,3116.01,628.54
		z"/>
	<path class="st1" d="M2968.16,320.99h-65.39c-0.79-2.86-3.39-4.97-6.51-4.97c-3.74,0-6.77,3.03-6.77,6.77
		c0,3.75,3.03,6.78,6.77,6.78c3.11,0,5.71-2.11,6.51-4.97h69V262.1l-43.13-43.14V49.69h37.91v-311.81h-3.61v308.2h-37.9v174.38
		l43.13,43.13V320.99z"/>
	<path class="st1" d="M2943.33,64.27h37.91v-333.77h-3.61V60.66h-37.9v152.41l43.13,43.13v85.68h-53.65
		c-0.8-2.86-3.39-4.97-6.51-4.97c-3.75,0-6.77,3.03-6.77,6.77c0,3.74,3.03,6.77,6.77,6.77c3.11,0,5.71-2.12,6.51-4.97h57.27v-90.77
		l-43.14-43.14V64.27z"/>
	<path class="st1" d="M3002.87,407.84V248.7l-43.13-43.13V81.23h37.9v-356.74h-3.59V77.62h-37.91v129.44l43.13,43.13v157.65
		c-2.85,0.79-4.97,3.38-4.97,6.5c0,3.75,3.04,6.78,6.78,6.78c3.74,0,6.77-3.03,6.77-6.78
		C3007.84,411.23,3005.73,408.64,3002.87,407.84z"/>
	<path class="st1" d="M2977.69,175.39c-2.86,0.8-4.96,3.39-4.96,6.51c0,3.74,3.02,6.78,6.77,6.78c3.74,0,6.77-3.04,6.77-6.78
		c0-3.12-2.11-5.71-4.97-6.51v-75.24h37.91v-311.81h-3.6V96.56h-37.91V175.39z"/>
	<path class="st1" d="M2992.38,197.93c-2.86,0.79-4.97,3.38-4.97,6.5c0,3.75,3.03,6.77,6.77,6.77c3.74,0,6.78-3.03,6.78-6.77
		c0-3.12-2.11-5.71-4.98-6.5v-83.2h37.91v-333.77h-3.61v330.16h-37.91V197.93z"/>
	<path class="st1" d="M3012.39,214.15v-82.46h37.91v-356.74h-3.6v353.14h-37.91v86.06c-2.86,0.79-4.98,3.39-4.98,6.51
		c0,3.74,3.03,6.77,6.77,6.77c3.75,0,6.78-3.03,6.78-6.77C3017.36,217.54,3015.25,214.94,3012.39,214.15z"/>
	<path class="st1" d="M3067.73,201.29h-21.52v60.62c-2.85,0.79-4.97,3.39-4.97,6.5c0,3.74,3.04,6.78,6.77,6.78s6.78-3.04,6.78-6.78
		c0-3.11-2.12-5.71-4.98-6.5V204.9h14.31v99.13h-34.31V176.97h37.91v-304.41h-3.6v300.8h-37.91v134.28h41.51V201.29z"/>
</g>
</svg>
