<?xml version="1.0" encoding="utf-8"?>
<!-- Generator: Adobe Illustrator 23.0.1, SVG Export Plug-In . SVG Version: 6.00 Build 0)  -->
<svg version="1.1" id="Capa_1" xmlns="http://www.w3.org/2000/svg" xmlns:xlink="http://www.w3.org/1999/xlink" x="0px" y="0px"
	 viewBox="0 0 69 61" style="enable-background:new 0 0 69 61;" xml:space="preserve">
<style type="text/css">
	.st0{fill:#AF2330;}
</style>
<g>
	<g>
		<path class="st0" d="M41.3,43.8c-2,1.2-2.7,3.8-1.5,5.8c1.2,2,3.8,2.7,5.8,1.5c2-1.2,2.7-3.8,1.5-5.8
			C45.9,43.3,43.3,42.6,41.3,43.8z M44.8,49.7c-1.2,0.7-2.8,0.3-3.5-0.9c-0.7-1.2-0.3-2.8,0.9-3.5c1.2-0.7,2.8-0.3,3.5,0.9
			C46.4,47.4,46,48.9,44.8,49.7z"/>
	</g>
</g>
<g>
	<g>
		<path class="st0" d="M48.7,41.4l-1.2,0.7c0,0-0.1,0-0.1-0.1l0.3-1.3c0.1-0.5-0.2-0.9-0.6-1l-3.3-0.8c-0.5-0.1-0.9,0.2-1,0.6
			l-0.3,1.3l-0.1,0l-0.7-1.2c-0.2-0.4-0.8-0.5-1.2-0.3l-2.9,1.7c-0.4,0.2-0.5,0.8-0.3,1.2l0.7,1.2L38,43.5l-1.3-0.3
			c-0.5-0.1-0.9,0.2-1,0.6L34.8,47c-0.1,0.5,0.2,0.9,0.6,1l1.3,0.3c0,0,0,0.1,0,0.1l-1.2,0.7c-0.4,0.2-0.5,0.8-0.3,1.2l1.7,2.9
			c0.2,0.4,0.8,0.5,1.2,0.3l1.2-0.7c0,0,0.1,0,0.1,0.1l-0.3,1.3c-0.1,0.5,0.2,0.9,0.6,1l3.3,0.8c0.5,0.1,0.9-0.2,1-0.6l0.3-1.3
			l0.1,0l0.7,1.2c0.2,0.4,0.8,0.5,1.2,0.3l2.9-1.7c0.4-0.2,0.5-0.8,0.3-1.2l-0.7-1.2l0.1-0.1l1.3,0.3c0.5,0.1,0.9-0.2,1-0.6l0.8-3.3
			c0.1-0.5-0.2-0.9-0.6-1l-1.3-0.3c0,0,0-0.1,0-0.1l1.2-0.7c0.4-0.2,0.5-0.8,0.3-1.2l-1.7-2.9C49.6,41.3,49.1,41.2,48.7,41.4z
			 M49.7,44.7l-0.9,0.6c-0.3,0.2-0.5,0.6-0.4,0.9c0.1,0.3,0.1,0.7,0.2,1c0,0.4,0.3,0.7,0.6,0.8l1.1,0.3L49.8,50l-1.1-0.3
			c-0.4-0.1-0.7,0.1-0.9,0.4c-0.2,0.3-0.4,0.6-0.6,0.8c-0.3,0.3-0.3,0.7-0.1,1l0.6,0.9l-1.5,0.9l-0.6-0.9c-0.2-0.3-0.6-0.5-0.9-0.4
			c-0.3,0.1-0.7,0.1-1,0.2c-0.4,0-0.7,0.3-0.8,0.6l-0.3,1.1L41,53.8l0.3-1.1c0.1-0.4-0.1-0.7-0.4-0.9c-0.3-0.2-0.6-0.4-0.8-0.6
			c-0.3-0.3-0.7-0.3-1-0.1l-0.9,0.6l-0.9-1.5l0.9-0.6c0.3-0.2,0.5-0.6,0.4-0.9c-0.1-0.3-0.1-0.7-0.2-1c0-0.4-0.3-0.7-0.6-0.8
			l-1.1-0.3l0.4-1.6l1.1,0.3c0.4,0.1,0.7-0.1,0.9-0.4c0.2-0.3,0.4-0.6,0.6-0.8c0.3-0.3,0.3-0.7,0.1-1l-0.6-0.9l1.5-0.9l0.6,0.9
			c0.2,0.3,0.6,0.5,0.9,0.4c0.3-0.1,0.7-0.1,1-0.2c0.4,0,0.7-0.3,0.8-0.6l0.3-1.1l1.6,0.4l-0.3,1.1c-0.1,0.4,0.1,0.7,0.4,0.9
			c0.3,0.2,0.6,0.4,0.8,0.6c0.3,0.3,0.7,0.3,1,0.1l0.9-0.6L49.7,44.7z"/>
	</g>
</g>
<g>
	<g>
		<path class="st0" d="M49.5,26.2c-2,1.2-2.7,3.8-1.5,5.8s3.8,2.7,5.8,1.5c2-1.2,2.7-3.8,1.5-5.8C54.1,25.6,51.5,25,49.5,26.2z
			 M53,32c-1.2,0.7-2.8,0.3-3.5-0.9c-0.7-1.2-0.3-2.8,0.9-3.5c1.2-0.7,2.8-0.3,3.5,0.9S54.2,31.3,53,32z"/>
	</g>
</g>
<g>
	<g>
		<path class="st0" d="M56.9,23.7l-1.2,0.7c0,0-0.1,0-0.1-0.1l0.3-1.3c0.1-0.5-0.2-0.9-0.6-1l-3.3-0.8c-0.5-0.1-0.9,0.2-1,0.6
			l-0.3,1.3l-0.1,0L50,22c-0.2-0.4-0.8-0.5-1.2-0.3l-1.5,0.9l-9.5-16c-0.2-0.4-0.8-0.5-1.2-0.3L3.9,25.7c-0.4,0.2-0.5,0.8-0.3,1.2
			l25,42.2c0.2,0.4,0.8,0.5,1.2,0.3l32.7-19.4c0.4-0.2,0.5-0.8,0.3-1.2L56,37.1l1.5-0.9c0.4-0.2,0.5-0.8,0.3-1.2l-0.7-1.2l0.1-0.1
			l1.3,0.3c0.5,0.1,0.9-0.2,1-0.6l0.8-3.3c0.1-0.5-0.2-0.9-0.6-1l-1.3-0.3c0,0,0-0.1,0-0.1l1.2-0.7c0.4-0.2,0.5-0.8,0.3-1.2L58.1,24
			C57.8,23.6,57.3,23.5,56.9,23.7z M34.6,9.4l2.2-1.3l9.1,15.3c-0.4,0.2-0.5,0.8-0.3,1.2l0.7,1.2l-0.1,0.1l-1.3-0.3
			c-0.2-0.1-0.4,0-0.6,0.1l0,0L34.6,9.4z M57.4,51L29.7,67.4L5.5,26.7l27.6-16.4l10.3,17.4l-0.4,1.7c-0.1,0.5,0.2,0.9,0.6,1l1.3,0.3
			c0,0,0,0.1,0,0.1l-1.2,0.7c-0.4,0.2-0.5,0.8-0.3,1.2l1.7,2.9c0.2,0.4,0.8,0.5,1.2,0.3l1.2-0.7c0,0,0.1,0,0.1,0.1l-0.3,1.3
			c-0.1,0.5,0.2,0.9,0.6,1l1.7,0.4L57.4,51z M61,48.9l-2.2,1.3l-7-11.8c0.2-0.1,0.4-0.3,0.4-0.5l0.3-1.3l0.1,0l0.7,1.2
			c0.2,0.4,0.8,0.5,1.2,0.3L61,48.9z M57.9,27.1L57,27.6c-0.3,0.2-0.5,0.6-0.4,0.9c0.1,0.3,0.1,0.7,0.2,1c0,0.4,0.3,0.7,0.6,0.8
			l1.1,0.3L58,32.3L57,32c-0.4-0.1-0.7,0.1-0.9,0.4c-0.2,0.3-0.4,0.6-0.6,0.8c-0.3,0.3-0.3,0.7-0.1,1l0.6,0.9l-1.5,0.9l-0.6-0.9
			c-0.2-0.3-0.6-0.5-0.9-0.4c-0.3,0.1-0.7,0.1-1,0.2c-0.4,0-0.7,0.3-0.8,0.6l-0.3,1.1l-1.6-0.4l0.3-1.1c0.1-0.4-0.1-0.7-0.4-0.9
			c-0.3-0.2-0.6-0.4-0.8-0.6c-0.3-0.3-0.7-0.3-1-0.1L46.3,34l-0.9-1.5l0.9-0.6c0.3-0.2,0.5-0.6,0.4-0.9c-0.1-0.3-0.1-0.7-0.2-1
			c0-0.4-0.3-0.7-0.6-0.8L44.9,29l0.4-1.6l1.1,0.3c0.1,0,0.2,0,0.3,0c0,0,0.1,0,0.1,0c0.1,0,0.1,0,0.2-0.1c0,0,0,0,0,0
			c0,0,0.1,0,0.1-0.1c0,0,0,0,0.1,0c0.1-0.1,0.1-0.1,0.2-0.2c0.2-0.3,0.4-0.6,0.6-0.8c0.3-0.3,0.3-0.7,0.1-1l-0.6-0.9l1.5-0.9
			l0.6,0.9c0.2,0.3,0.6,0.5,0.9,0.4c0.3-0.1,0.7-0.1,1-0.2c0.4,0,0.7-0.3,0.8-0.6l0.3-1.1l1.6,0.4l-0.3,1.1
			c-0.1,0.4,0.1,0.7,0.4,0.9c0.3,0.2,0.6,0.4,0.8,0.6c0.3,0.3,0.7,0.3,1,0.1l0.9-0.6L57.9,27.1z"/>
	</g>
</g>
<g>
	<g>
		
			<rect x="25.7" y="17.3" transform="matrix(0.8599 -0.5105 0.5105 0.8599 -5.0438 17.8278)" class="st0" width="8.5" height="1.7"/>
	</g>
</g>
<g>
	<g>
		
			<rect x="9.1" y="24.6" transform="matrix(0.8599 -0.5105 0.5105 0.8599 -10.5239 12.5433)" class="st0" width="16.9" height="1.7"/>
	</g>
</g>
<g>
	<g>
		<rect x="17.2" y="23" transform="matrix(0.8599 -0.5105 0.5105 0.8599 -8.3826 17.0967)" class="st0" width="19.5" height="1.7"/>
	</g>
</g>
<g>
	<g>
		
			<rect x="11.6" y="30.3" transform="matrix(0.8599 -0.5105 0.5105 0.8599 -13.8627 11.8122)" class="st0" width="5.9" height="1.7"/>
	</g>
</g>
<g>
	<g>
		
			<rect x="27.6" y="23.5" transform="matrix(0.8599 -0.5105 0.5105 0.8599 -7.853 20.0958)" class="st0" width="10.2" height="1.7"/>
	</g>
</g>
<g>
	<g>
		
			<rect x="12.7" y="30.9" transform="matrix(0.8599 -0.5105 0.5105 0.8599 -13.3331 14.8113)" class="st0" width="15.2" height="1.7"/>
	</g>
</g>
<g>
	<g>
		
			<rect x="13.6" y="30.7" transform="matrix(0.8599 -0.5105 0.5105 0.8599 -12.32 18.2767)" class="st0" width="27.1" height="1.7"/>
	</g>
</g>
<g>
	<g>
		
			<rect x="32.6" y="28.9" transform="matrix(0.8599 -0.5105 0.5105 0.8599 -10.0175 22.9855)" class="st0" width="8.5" height="1.7"/>
	</g>
</g>
<g>
	<g>
		<rect x="16" y="36.2" transform="matrix(0.8599 -0.5105 0.5105 0.8599 -15.4976 17.701)" class="st0" width="16.9" height="1.7"/>
	</g>
</g>
<g>
	<g>
		
			<rect x="22.6" y="35" transform="matrix(0.8599 -0.5105 0.5105 0.8599 -13.6786 21.9436)" class="st0" width="21.2" height="1.7"/>
	</g>
</g>
<g>
	<g>
		
			<rect x="18.7" y="42.4" transform="matrix(0.8599 -0.5105 0.5105 0.8599 -19.1587 16.6591)" class="st0" width="4.2" height="1.7"/>
	</g>
</g>
<g>
	<g>
		
			<rect x="19.8" y="43.1" transform="matrix(0.8599 -0.5105 0.5105 0.8599 -18.7903 19.5028)" class="st0" width="12.7" height="1.7"/>
	</g>
</g>
</svg>
