<svg xmlns="http://www.w3.org/2000/svg" viewBox="0 0 480 480" width="512" height="512"><path d="M236 328c-22.091 0-40 17.909-40 40s17.909 40 40 40 40-17.909 40-40c-.026-22.08-17.92-39.974-40-40zm0 64c-13.255 0-24-10.745-24-24s10.745-24 24-24 24 10.745 24 24-10.745 24-24 24z" fill="#FFF"/><path d="M308 344h-12.672c-.136-.328-.264-.656-.4-.984l8.96-8.96a8 8 0 0 0 0-11.312l-22.632-22.632a8.232 8.232 0 0 0-11.312 0l-8.96 8.96-.984-.4V296a8 8 0 0 0-8-8h-32a8 8 0 0 0-8 8v12.672l-.984.4-8.96-8.96a8 8 0 0 0-11.312 0l-22.632 22.632a8 8 0 0 0 0 11.312l8.96 8.96c-.136.328-.272.656-.4.984H164a8 8 0 0 0-8 8v32a8 8 0 0 0 8 8h12.672c.136.328.264.656.4.984l-8.96 8.96a8 8 0 0 0 0 11.312l22.632 22.632a8.232 8.232 0 0 0 11.312 0l8.96-8.96.984.4V440a8 8 0 0 0 8 8h32a8 8 0 0 0 8-8v-12.672l.984-.4 8.96 8.96a8 8 0 0 0 11.312 0l22.632-22.632a8 8 0 0 0 0-11.312l-8.96-8.96c.136-.328.272-.656.4-.984H308a8 8 0 0 0 8-8v-32a8 8 0 0 0-8-8zm-8 32h-10.352a8 8 0 0 0-7.664 5.72 47.43 47.43 0 0 1-3.752 9.112 8 8 0 0 0 1.376 9.472l7.304 7.304-11.312 11.304-7.304-7.304a8 8 0 0 0-9.472-1.376 47.43 47.43 0 0 1-9.112 3.752 8 8 0 0 0-5.72 7.664V432H228v-10.352a8 8 0 0 0-5.72-7.664 47.43 47.43 0 0 1-9.112-3.752 8 8 0 0 0-9.472 1.376l-7.304 7.304-11.304-11.312 7.304-7.304a8 8 0 0 0 1.376-9.472 47.43 47.43 0 0 1-3.752-9.112 8 8 0 0 0-7.664-5.712H172v-16h10.352a8 8 0 0 0 7.664-5.72 47.43 47.43 0 0 1 3.752-9.112 8 8 0 0 0-1.376-9.472l-7.304-7.304L196.4 317.08l7.304 7.304a8 8 0 0 0 9.472 1.376 47.43 47.43 0 0 1 9.112-3.752 8 8 0 0 0 5.712-7.656V304h16v10.352a8 8 0 0 0 5.72 7.664 47.43 47.43 0 0 1 9.112 3.752 8 8 0 0 0 9.472-1.376l7.304-7.304L286.92 328.4l-7.304 7.304a8 8 0 0 0-1.376 9.472 47.43 47.43 0 0 1 3.752 9.112 8 8 0 0 0 7.664 5.72H300V376zm88-152c-22.091 0-40 17.909-40 40s17.909 40 40 40 40-17.909 40-40c-.026-22.08-17.92-39.974-40-40zm0 64c-13.255 0-24-10.745-24-24s10.745-24 24-24 24 10.745 24 24-10.745 24-24 24z" fill="#FFF"/><path d="M460 240h-12.672c-.136-.328-.264-.656-.4-.984l8.96-8.96a8 8 0 0 0 0-11.312l-22.632-22.632a8.232 8.232 0 0 0-11.312 0l-8.96 8.96-.984-.4V192a8 8 0 0 0-8-8h-16V8a8 8 0 0 0-8-8H20a8 8 0 0 0-8 8v464a8 8 0 0 0 8 8h360a8 8 0 0 0 8-8V344h16a8 8 0 0 0 8-8v-12.672l.984-.4 8.96 8.96a8 8 0 0 0 11.312 0l22.632-22.632a8 8 0 0 0 0-11.312l-8.96-8.96c.136-.328.272-.656.4-.984H460a8 8 0 0 0 8-8v-32a8 8 0 0 0-8-8zM348 16h24v168a8 8 0 0 0-8 8v12.672l-.984.4-8.96-8.96a8 8 0 0 0-5.656-2.344h-.4V16zm-16 448H28V16h304v190.864l-11.88 11.88a8 8 0 0 0 0 11.312l8.96 8.96c-.136.328-.272.656-.4.984H316a8 8 0 0 0-8 8v32a8 8 0 0 0 8 8h12.672c.136.328.264.656.4.984l-8.96 8.96a8 8 0 0 0 0 11.312L332 321.136V464zm40 0h-24V334.216a7.68 7.68 0 0 0 6.056-2.336l8.96-8.96.984.4V336a8 8 0 0 0 8 8v120zm80-192h-10.352a8 8 0 0 0-7.664 5.72 47.43 47.43 0 0 1-3.752 9.112 8 8 0 0 0 1.376 9.472l7.304 7.304-11.312 11.304-7.304-7.304a8 8 0 0 0-9.472-1.376 47.43 47.43 0 0 1-9.112 3.752 8 8 0 0 0-5.72 7.664V328H380v-10.352a8 8 0 0 0-5.72-7.664 47.43 47.43 0 0 1-9.112-3.752 8 8 0 0 0-9.472 1.376l-7.304 7.304-11.304-11.312 7.304-7.304a8 8 0 0 0 1.376-9.472 47.43 47.43 0 0 1-3.752-9.112 8 8 0 0 0-7.664-5.712H324v-16h10.352a8 8 0 0 0 7.664-5.72 47.43 47.43 0 0 1 3.752-9.112 8 8 0 0 0-1.376-9.472l-7.304-7.304L348.4 213.08l7.304 7.304a7.915 7.915 0 0 0 2.4 1.6c.28.105.566.193.856.264a7.86 7.86 0 0 0 1.92.376c.16 0 .312.096.472.096.301-.02.6-.058.896-.112.232 0 .464 0 .696-.088a7.96 7.96 0 0 0 2.216-.8 47.43 47.43 0 0 1 9.112-3.752 8 8 0 0 0 5.728-7.616V200h16v10.352a8 8 0 0 0 5.72 7.664 47.43 47.43 0 0 1 9.112 3.752 8 8 0 0 0 9.472-1.376l7.304-7.304L438.92 224.4l-7.304 7.304a8 8 0 0 0-1.376 9.472 47.43 47.43 0 0 1 3.752 9.112 8 8 0 0 0 7.664 5.72H452V272z" fill="#FFF"/><path fill="#FFF" d="M228 56h80v16h-80zM52 56h160v16H52zm72 32h184v16H124zm-72 0h56v16H52zm160 32h96v16h-96zm-160 0h144v16H52zm0 32h256v16H52zm176 32h80v16h-80zm-176 0h160v16H52zm56 32h200v16H108zm-56 0h40v16H52zm0 32h120v16H52z"/></svg>