<svg version="1.1" id="Capa_1" xmlns="http://www.w3.org/2000/svg" x="0" y="0" viewBox="0 0 69 61" xml:space="preserve"><style>.st0{fill:#fff}</style><path class="st0" d="M41.3 43.8c-2 1.2-2.7 3.8-1.5 5.8s3.8 2.7 5.8 1.5 2.7-3.8 1.5-5.8c-1.2-2-3.8-2.7-5.8-1.5zm3.5 5.9c-1.2.7-2.8.3-3.5-.9s-.3-2.8.9-3.5 2.8-.3 3.5.9.3 2.7-.9 3.5z"/><path class="st0" d="M48.7 41.4l-1.2.7s-.1 0-.1-.1l.3-1.3c.1-.5-.2-.9-.6-1l-3.3-.8c-.5-.1-.9.2-1 .6l-.3 1.3h-.1l-.7-1.2c-.2-.4-.8-.5-1.2-.3L37.6 41c-.4.2-.5.8-.3 1.2l.7 1.2v.1l-1.3-.3c-.5-.1-.9.2-1 .6l-.9 3.2c-.1.5.2.9.6 1l1.3.3v.1l-1.2.7c-.4.2-.5.8-.3 1.2l1.7 2.9c.2.4.8.5 1.2.3l1.2-.7s.1 0 .1.1l-.3 1.3c-.1.5.2.9.6 1l3.3.8c.5.1.9-.2 1-.6l.3-1.3h.1l.7 1.2c.2.4.8.5 1.2.3l2.9-1.7c.4-.2.5-.8.3-1.2l-.7-1.2.1-.1 1.3.3c.5.1.9-.2 1-.6l.8-3.3c.1-.5-.2-.9-.6-1l-1.3-.3v-.1l1.2-.7c.4-.2.5-.8.3-1.2l-1.7-2.9c-.3-.3-.8-.4-1.2-.2zm1 3.3l-.9.6c-.3.2-.5.6-.4.9.1.3.1.7.2 1 0 .4.3.7.6.8l1.1.3-.5 1.7-1.1-.3c-.4-.1-.7.1-.9.4-.2.3-.4.6-.6.8-.3.3-.3.7-.1 1l.6.9-1.5.9-.6-.9c-.2-.3-.6-.5-.9-.4-.3.1-.7.1-1 .2-.4 0-.7.3-.8.6l-.3 1.1-1.6-.5.3-1.1c.1-.4-.1-.7-.4-.9-.3-.2-.6-.4-.8-.6-.3-.3-.7-.3-1-.1l-.9.6-.9-1.5.9-.6c.3-.2.5-.6.4-.9-.1-.3-.1-.7-.2-1 0-.4-.3-.7-.6-.8l-1.1-.3.4-1.6 1.1.3c.4.1.7-.1.9-.4.2-.3.4-.6.6-.8.3-.3.3-.7.1-1l-.6-.9 1.5-.9.6.9c.2.3.6.5.9.4.3-.1.7-.1 1-.2.4 0 .7-.3.8-.6l.3-1.1 1.6.4-.3 1.1c-.1.4.1.7.4.9.3.2.6.4.8.6.3.3.7.3 1 .1l.9-.6 1 1.5zm-.2-18.5c-2 1.2-2.7 3.8-1.5 5.8s3.8 2.7 5.8 1.5 2.7-3.8 1.5-5.8c-1.2-2.1-3.8-2.7-5.8-1.5zM53 32c-1.2.7-2.8.3-3.5-.9-.7-1.2-.3-2.8.9-3.5s2.8-.3 3.5.9.3 2.8-.9 3.5z"/><path class="st0" d="M56.9 23.7l-1.2.7s-.1 0-.1-.1l.3-1.3c.1-.5-.2-.9-.6-1l-3.3-.8c-.5-.1-.9.2-1 .6l-.3 1.3h-.1L50 22c-.2-.4-.8-.5-1.2-.3l-1.5.9-9.5-16c-.2-.4-.8-.5-1.2-.3L3.9 25.7c-.4.2-.5.8-.3 1.2l25 42.2c.2.4.8.5 1.2.3L62.5 50c.4-.2.5-.8.3-1.2L56 37.1l1.5-.9c.4-.2.5-.8.3-1.2l-.7-1.2.1-.1 1.3.3c.5.1.9-.2 1-.6l.8-3.3c.1-.5-.2-.9-.6-1l-1.3-.3v-.1l1.2-.7c.4-.2.5-.8.3-1.2L58.1 24c-.3-.4-.8-.5-1.2-.3zM34.6 9.4l2.2-1.3 9.1 15.3c-.4.2-.5.8-.3 1.2l.7 1.2-.1.1-1.3-.3c-.2-.1-.4 0-.6.1L34.6 9.4zM57.4 51L29.7 67.4 5.5 26.7l27.6-16.4 10.3 17.4-.4 1.7c-.1.5.2.9.6 1l1.3.3v.1l-1.2.7c-.4.2-.5.8-.3 1.2l1.7 2.9c.2.4.8.5 1.2.3l1.2-.7s.1 0 .1.1l-.3 1.3c-.1.5.2.9.6 1l1.7.4 7.8 13zm3.6-2.1l-2.2 1.3-7-11.8c.2-.1.4-.3.4-.5l.3-1.3h.1l.7 1.2c.2.4.8.5 1.2.3L61 48.9zm-3.1-21.8l-.9.5c-.3.2-.5.6-.4.9s.1.7.2 1c0 .4.3.7.6.8l1.1.3-.5 1.7-1-.3c-.4-.1-.7.1-.9.4-.2.3-.4.6-.6.8-.3.3-.3.7-.1 1l.6.9-1.5.9-.6-.9c-.2-.3-.6-.5-.9-.4-.3.1-.7.1-1 .2-.4 0-.7.3-.8.6l-.3 1.1-1.6-.4.3-1.1c.1-.4-.1-.7-.4-.9-.3-.2-.6-.4-.8-.6-.3-.3-.7-.3-1-.1l-1.1.5-.9-1.5.9-.6c.3-.2.5-.6.4-.9s-.1-.7-.2-1c0-.4-.3-.7-.6-.8l-1-.2.4-1.6 1.1.3h.4c.1 0 .1 0 .2-.1 0 0 .1 0 .1-.1h.1l.2-.2c.2-.3.4-.6.6-.8.3-.3.3-.7.1-1l-.6-.9 1.5-.9.6.9c.2.3.6.5.9.4.3-.1.7-.1 1-.2.4 0 .7-.3.8-.6l.3-1.1 1.6.4-.3 1.1c-.1.4.1.7.4.9.3.2.6.4.8.6.3.3.7.3 1 .1l.9-.6.9 1.5z"/><path transform="rotate(-30.695 29.976 18.144)" class="st0" d="M25.7 17.3h8.5V19h-8.5z"/><path transform="rotate(-30.695 17.56 25.468)" class="st0" d="M9.1 24.6H26v1.7H9.1z"/><path transform="rotate(-30.695 26.968 23.846)" class="st0" d="M17.2 23h19.5v1.7H17.2z"/><path transform="rotate(-30.695 14.552 31.17)" class="st0" d="M11.6 30.3h5.9V32h-5.9z"/><path transform="rotate(-30.695 32.697 24.34)" class="st0" d="M27.6 23.5h10.2v1.7H27.6z"/><path transform="rotate(-30.695 20.332 31.749)" class="st0" d="M12.7 30.9h15.2v1.7H12.7z"/><path transform="rotate(-30.695 27.133 31.545)" class="st0" d="M13.6 30.7h27.1v1.7H13.6z"/><path transform="rotate(-30.695 36.858 29.754)" class="st0" d="M32.6 28.9h8.5v1.7h-8.5z"/><path transform="rotate(-30.695 24.442 37.077)" class="st0" d="M16 36.2h16.9v1.7H16z"/><path transform="rotate(-30.695 33.172 35.82)" class="st0" d="M22.6 35h21.2v1.7H22.6z"/><path transform="rotate(-30.695 20.808 43.23)" class="st0" d="M18.7 42.4h4.2v1.7h-4.2z"/><path transform="rotate(-30.695 26.134 43.944)" class="st0" d="M19.8 43.1h12.7v1.7H19.8z"/></svg>