<svg xmlns="http://www.w3.org/2000/svg" width="512" height="512"><path d="M256 0c-49.629 0-90 41.371-90 91s40.371 90 90 90 90-40.371 90-90-40.371-91-90-91zm30 181h-60c-21.158 0-41.603 5.469-60.19 14.773 31.569 8.518 61.293 20.786 90.19 37.372 28.898-16.586 58.621-28.854 90.19-37.372C327.603 186.469 307.158 181 286 181zm196 90c-16.569 0-30 13.431-30 30v60c0 16.567 13.431 30 30 30 16.569 0 30-13.433 30-30v-60c0-16.569-13.431-30-30-30zm-452 0c-16.569 0-30 13.431-30 30v60c0 16.567 13.431 30 30 30 16.569 0 30-13.433 30-30v-60c0-16.569-13.431-30-30-30z" fill="#FFF"/><path d="M45 211c-8.291 0-15 6.709-15 15v15c33.091 0 60 26.909 60 60v60c0 33.091-26.909 60-60 60v15c0 8.291 6.709 15 15 15 76.901 0 138.39 24.286 196 61V259.594C183.13 226.414 120.903 211 45 211zm437 30v-15c0-8.291-6.709-15-15-15-75.903 0-138.13 15.414-196 48.594V512c57.61-36.714 119.099-61 196-61 8.291 0 15-6.709 15-15v-15c-33.091 0-60-26.909-60-60v-60c0-33.091 26.909-60 60-60z" fill="#FFF"/></svg>